<svg width="205" height="59" viewBox="0 0 205 59" fill="none" xmlns="http://www.w3.org/2000/svg">
<path d="M203.096 52.1958C203.096 55.3399 200.496 57.8868 197.28 57.8868H6.95796C3.74368 57.8868 1.13463 55.3399 1.13463 52.1958V6.81166C1.13463 3.66897 3.74368 1.1132 6.95796 1.1132H197.279C200.496 1.1132 203.095 3.66897 203.095 6.81166L203.096 52.1958Z" fill="black"/>
<path d="M196.667 1.18185C200.169 1.18185 203.019 3.96038 203.019 7.37501V51.625C203.019 55.0396 200.169 57.8182 196.667 57.8182H7.5641C4.06192 57.8182 1.21215 55.0396 1.21215 51.625V7.37501C1.21215 3.96038 4.06192 1.18185 7.5641 1.18185H196.667ZM196.667 5.4802e-06H7.5641C3.40574 5.4802e-06 0 3.3206 0 7.37501V51.625C0 55.6794 3.40574 59 7.5641 59H196.667C200.825 59 204.231 55.6794 204.231 51.625V7.37501C204.231 3.3206 200.825 5.4802e-06 196.667 5.4802e-06Z" fill="#A6A6A6"/>
<path d="M45.5783 29.1814C45.5344 24.4275 49.5706 22.1147 49.7552 22.007C47.4693 18.7576 43.9263 18.3136 42.6812 18.2782C39.7055 17.9729 36.819 20.0143 35.3032 20.0143C33.7571 20.0143 31.4228 18.3077 28.907 18.3578C25.6695 18.4065 22.6409 20.234 20.9798 23.0719C17.5518 28.8584 20.1084 37.3617 23.3928 42.0389C25.0357 44.3296 26.9554 46.8873 29.4682 46.7973C31.9266 46.6985 32.8449 45.2692 35.8115 45.2692C38.7509 45.2692 39.6132 46.7973 42.1759 46.7398C44.8143 46.6985 46.4754 44.4388 48.0608 42.1275C49.9594 39.502 50.7219 36.9163 50.7521 36.7835C50.6901 36.7629 45.6282 34.8793 45.5783 29.1814Z" fill="white"/>
<path d="M40.7372 15.2013C42.0594 13.5892 42.9641 11.3958 42.713 9.17006C40.7993 9.25266 38.406 10.4607 37.0278 12.0375C35.8085 13.4269 34.7192 15.7043 35.0006 17.846C37.1503 18.0024 39.3575 16.7884 40.7372 15.2013Z" fill="white"/>
<path d="M81.1553 46.4684H77.7196L75.8377 40.7026H69.2963L67.5036 46.4684H64.1587L70.6396 26.8391H74.6426L81.1553 46.4684ZM75.2704 38.2836L73.5685 33.158C73.3884 32.6343 73.0511 31.4012 72.5534 29.4601H72.4928C72.2947 30.295 71.9755 31.5281 71.5367 33.158L69.8651 38.2836H75.2704Z" fill="white"/>
<path d="M97.822 39.2173C97.822 41.6245 97.1548 43.5273 95.8205 44.9241C94.6254 46.1675 93.1413 46.7885 91.3698 46.7885C89.4576 46.7885 88.084 46.1188 87.2474 44.7795H87.1869V52.2357H83.9615V36.9738C83.9615 35.4605 83.9207 33.9073 83.842 32.3143H86.6785L86.8586 34.5578H86.9191C87.9947 32.8674 89.627 32.0237 91.8176 32.0237C93.5301 32.0237 94.9597 32.6831 96.1034 34.0032C97.2501 35.3248 97.822 37.0623 97.822 39.2173ZM94.5361 39.3324C94.5361 37.9547 94.2184 36.819 93.58 35.9251C92.8826 34.9929 91.9462 34.5268 90.7722 34.5268C89.9765 34.5268 89.2534 34.7864 88.6074 35.2982C87.9599 35.8145 87.5363 36.4886 87.3381 37.3234C87.2383 37.7128 87.1884 38.0314 87.1884 38.2822V40.6422C87.1884 41.6717 87.5121 42.5405 88.1596 43.25C88.8071 43.9594 89.6482 44.3134 90.683 44.3134C91.8978 44.3134 92.8433 43.8562 93.5195 42.9446C94.1973 42.0316 94.5361 40.828 94.5361 39.3324Z" fill="white"/>
<path d="M114.519 39.2173C114.519 41.6245 113.852 43.5273 112.516 44.9241C111.322 46.1675 109.838 46.7885 108.067 46.7885C106.155 46.7885 104.781 46.1188 103.946 44.7795H103.885V52.2357H100.66V36.9738C100.66 35.4605 100.619 33.9073 100.541 32.3143H103.377L103.557 34.5578H103.618C104.692 32.8674 106.324 32.0237 108.516 32.0237C110.227 32.0237 111.657 32.6831 112.803 34.0032C113.946 35.3248 114.519 37.0623 114.519 39.2173ZM111.233 39.3324C111.233 37.9547 110.914 36.819 110.276 35.9251C109.578 34.9929 108.645 34.5268 107.469 34.5268C106.672 34.5268 105.95 34.7864 105.303 35.2982C104.655 35.8145 104.233 36.4886 104.035 37.3234C103.937 37.7128 103.885 38.0314 103.885 38.2822V40.6422C103.885 41.6717 104.209 42.5405 104.854 43.25C105.501 43.958 106.342 44.3134 107.38 44.3134C108.595 44.3134 109.54 43.8562 110.217 42.9446C110.894 42.0316 111.233 40.828 111.233 39.3324Z" fill="white"/>
<path d="M133.187 40.9637C133.187 42.6334 132.593 43.9919 131.399 45.0406C130.087 46.1867 128.261 46.759 125.915 46.759C123.749 46.759 122.012 46.3519 120.697 45.5362L121.445 42.9151C122.861 43.75 124.414 44.1689 126.107 44.1689C127.322 44.1689 128.267 43.9004 128.947 43.3665C129.623 42.8325 129.96 42.1157 129.96 41.2218C129.96 40.4253 129.682 39.7542 129.124 39.2099C128.569 38.6656 127.641 38.1597 126.346 37.6921C122.821 36.4104 121.06 34.5327 121.06 32.0635C121.06 30.4499 121.678 29.1268 122.914 28.0973C124.145 27.0662 125.788 26.5515 127.842 26.5515C129.674 26.5515 131.196 26.8627 132.411 27.4837L131.605 30.0472C130.47 29.4454 129.187 29.1445 127.752 29.1445C126.617 29.1445 125.73 29.4174 125.095 29.9602C124.558 30.4455 124.289 31.0369 124.289 31.7376C124.289 32.5134 124.596 33.155 125.213 33.6595C125.75 34.1256 126.726 34.63 128.142 35.1743C129.874 35.8543 131.146 36.6493 131.965 37.5609C132.78 38.4695 133.187 39.6067 133.187 40.9637Z" fill="white"/>
<path d="M143.851 34.6743H140.296V41.5463C140.296 43.2942 140.922 44.1674 142.178 44.1674C142.754 44.1674 143.232 44.1187 143.611 44.0213L143.7 46.4094C143.064 46.6409 142.228 46.7575 141.192 46.7575C139.918 46.7575 138.922 46.3784 138.204 45.6217C137.488 44.8636 137.128 43.5921 137.128 41.8059V34.6713H135.01V32.3113H137.128V29.7197L140.296 28.7875V32.3113H143.851V34.6743Z" fill="white"/>
<path d="M159.891 39.2748C159.891 41.4504 159.253 43.2367 157.979 44.6335C156.643 46.0716 154.87 46.7885 152.66 46.7885C150.53 46.7885 148.834 46.0996 147.57 44.722C146.305 43.3443 145.672 41.6053 145.672 39.5093C145.672 37.316 146.323 35.5195 147.629 34.1226C148.931 32.7243 150.689 32.0252 152.899 32.0252C155.029 32.0252 156.743 32.714 158.037 34.0931C159.274 35.431 159.891 37.1582 159.891 39.2748ZM156.545 39.3766C156.545 38.0712 156.259 36.9517 155.68 36.018C155.004 34.8882 154.037 34.3247 152.784 34.3247C151.488 34.3247 150.503 34.8896 149.827 36.018C149.247 36.9532 148.961 38.0904 148.961 39.4356C148.961 40.741 149.247 41.8605 149.827 42.7927C150.524 43.9225 151.498 44.486 152.756 44.486C153.987 44.486 154.954 43.9107 155.651 42.7632C156.246 41.8118 156.545 40.6805 156.545 39.3766Z" fill="white"/>
<path d="M170.375 35.0799C170.056 35.0224 169.716 34.9929 169.359 34.9929C168.224 34.9929 167.347 35.4103 166.729 36.2467C166.192 36.9842 165.923 37.9164 165.923 39.0418V46.4684H162.699L162.73 36.7718C162.73 35.1404 162.689 33.6551 162.609 32.3158H165.418L165.536 35.0239H165.625C165.965 34.0932 166.503 33.3439 167.238 32.7819C167.956 32.276 168.732 32.0237 169.569 32.0237C169.867 32.0237 170.136 32.0444 170.375 32.0813V35.0799Z" fill="white"/>
<path d="M184.8 38.7217C184.8 39.2851 184.762 39.7601 184.682 40.148H175.006C175.044 41.5463 175.511 42.6157 176.41 43.3532C177.225 44.0125 178.28 44.3429 179.575 44.3429C181.007 44.3429 182.315 44.1202 183.49 43.6732L183.995 45.8562C182.622 46.4403 181 46.7309 179.129 46.7309C176.877 46.7309 175.11 46.0849 173.825 44.7942C172.542 43.5036 171.899 41.7705 171.899 39.5963C171.899 37.462 172.496 35.6846 173.693 34.2672C174.946 32.7538 176.638 31.9971 178.768 31.9971C180.861 31.9971 182.445 32.7538 183.52 34.2672C184.372 35.4693 184.8 36.9561 184.8 38.7217ZM181.725 37.906C181.746 36.9738 181.535 36.1684 181.098 35.4885C180.54 34.6138 179.682 34.1772 178.528 34.1772C177.474 34.1772 176.616 34.6035 175.961 35.459C175.424 36.1389 175.104 36.9546 175.006 37.9045H181.725V37.906Z" fill="white"/>
<path d="M72.1299 14.0932C72.1299 15.8293 71.5959 17.1361 70.5293 18.0138C69.5414 18.8235 68.1375 19.2292 66.3191 19.2292C65.4175 19.2292 64.6459 19.1908 64 19.1141V9.62838C64.8426 9.49563 65.7503 9.42778 66.7306 9.42778C68.4628 9.42778 69.7684 9.79505 70.6488 10.5296C71.6352 11.36 72.1299 12.5474 72.1299 14.0932ZM70.4582 14.136C70.4582 13.0106 70.1526 12.1477 69.5414 11.5459C68.9303 10.9456 68.0377 10.6447 66.8622 10.6447C66.363 10.6447 65.9379 10.6771 65.5854 10.745V17.9562C65.7806 17.9857 66.1376 17.999 66.6565 17.999C67.8698 17.999 68.8062 17.6701 69.4658 17.0122C70.1254 16.3544 70.4582 15.3956 70.4582 14.136Z" fill="white"/>
<path d="M80.9935 15.6095C80.9935 16.6789 80.6804 17.555 80.0541 18.2424C79.3975 18.9489 78.5276 19.3014 77.4414 19.3014C76.3945 19.3014 75.561 18.9636 74.9392 18.2851C74.319 17.6081 74.0088 16.7541 74.0088 15.7245C74.0088 14.6478 74.328 13.7643 74.9695 13.0784C75.6109 12.3925 76.4732 12.0488 77.5594 12.0488C78.6063 12.0488 79.4474 12.3866 80.0843 13.0636C80.6894 13.7215 80.9935 14.5711 80.9935 15.6095ZM79.3491 15.6596C79.3491 15.018 79.2069 14.4678 78.924 14.0091C78.5912 13.4545 78.1176 13.1772 77.5019 13.1772C76.865 13.1772 76.3809 13.4545 76.0481 14.0091C75.7637 14.4678 75.623 15.0269 75.623 15.6877C75.623 16.3293 75.7652 16.8795 76.0481 17.3382C76.3915 17.8928 76.8696 18.1701 77.4868 18.1701C78.0919 18.1701 78.5669 17.8884 78.9088 17.3234C79.2023 16.8559 79.3491 16.3013 79.3491 15.6596Z" fill="white"/>
<path d="M92.8782 12.1904L90.6468 19.1436H89.1945L88.2702 16.1243C88.0357 15.3705 87.8451 14.6212 87.6968 13.8778H87.6681C87.5304 14.6419 87.3398 15.3897 87.0947 16.1243L86.1129 19.1436H84.644L82.5457 12.1904H84.175L84.9813 15.4959C85.1765 16.2777 85.3368 17.0225 85.4654 17.7276H85.4942C85.6122 17.1464 85.8073 16.406 86.0827 15.5107L87.0947 12.1919H88.3867L89.3564 15.4399C89.5909 16.2319 89.7815 16.9945 89.9282 17.7291H89.9721C90.0795 17.0137 90.2414 16.2511 90.4562 15.4399L91.3215 12.1919H92.8782V12.1904Z" fill="white"/>
<path d="M101.097 19.1436H99.512V15.1611C99.512 13.9339 99.0339 13.3203 98.0748 13.3203C97.6043 13.3203 97.2246 13.4884 96.9296 13.8262C96.6376 14.164 96.4894 14.5622 96.4894 15.018V19.1421H94.9039V14.1773C94.9039 13.5666 94.8843 12.9043 94.8464 12.1875H96.2397L96.3139 13.2746H96.3577C96.5423 12.9368 96.8176 12.658 97.1792 12.4353C97.6088 12.1757 98.0899 12.0444 98.6164 12.0444C99.282 12.0444 99.8357 12.2539 100.276 12.6742C100.824 13.189 101.097 13.9575 101.097 14.9782V19.1436Z" fill="white"/>
<path d="M105.469 19.1436H103.886V9H105.469V19.1436Z" fill="white"/>
<path d="M114.804 15.6095C114.804 16.6789 114.49 17.555 113.864 18.2424C113.207 18.9489 112.336 19.3014 111.251 19.3014C110.203 19.3014 109.369 18.9636 108.749 18.2851C108.129 17.6081 107.819 16.7541 107.819 15.7245C107.819 14.6478 108.138 13.7643 108.779 13.0784C109.421 12.3925 110.283 12.0488 111.368 12.0488C112.416 12.0488 113.256 12.3866 113.894 13.0636C114.499 13.7215 114.804 14.5711 114.804 15.6095ZM113.158 15.6596C113.158 15.018 113.015 14.4678 112.732 14.0091C112.401 13.4545 111.926 13.1772 111.312 13.1772C110.674 13.1772 110.189 13.4545 109.858 14.0091C109.574 14.4678 109.433 15.0269 109.433 15.6877C109.433 16.3293 109.575 16.8795 109.858 17.3382C110.202 17.8928 110.68 18.1701 111.297 18.1701C111.902 18.1701 112.375 17.8884 112.717 17.3234C113.012 16.8559 113.158 16.3013 113.158 15.6596Z" fill="white"/>
<path d="M122.477 19.1436H121.053L120.935 18.3427H120.891C120.404 18.9813 119.71 19.3014 118.808 19.3014C118.135 19.3014 117.59 19.0905 117.18 18.6716C116.808 18.291 116.622 17.8176 116.622 17.2556C116.622 16.406 116.985 15.7585 117.716 15.3101C118.445 14.8617 119.471 14.6419 120.791 14.6522V14.5224C120.791 13.6064 120.298 13.1492 119.31 13.1492C118.607 13.1492 117.987 13.3218 117.451 13.664L117.129 12.6492C117.791 12.2494 118.61 12.0488 119.575 12.0488C121.439 12.0488 122.374 13.0076 122.374 14.9251V17.4857C122.374 18.1804 122.408 18.7335 122.477 19.1436ZM120.831 16.7541V15.6818C119.082 15.6523 118.207 16.1198 118.207 17.083C118.207 17.4459 118.307 17.7173 118.511 17.8987C118.716 18.0801 118.976 18.1701 119.286 18.1701C119.634 18.1701 119.959 18.0624 120.256 17.8485C120.554 17.6332 120.737 17.3603 120.805 17.0255C120.822 16.9503 120.831 16.8588 120.831 16.7541Z" fill="white"/>
<path d="M131.485 19.1436H130.078L130.004 18.027H129.96C129.511 18.8766 128.746 19.3014 127.67 19.3014C126.811 19.3014 126.095 18.9725 125.528 18.3146C124.961 17.6568 124.678 16.8027 124.678 15.754C124.678 14.6286 124.985 13.717 125.602 13.0208C126.2 12.3718 126.932 12.0473 127.803 12.0473C128.761 12.0473 129.431 12.3615 129.812 12.9913H129.842V9H131.429V17.2703C131.429 17.9473 131.448 18.5713 131.485 19.1436ZM129.842 16.2113V15.0519C129.842 14.8513 129.827 14.6891 129.799 14.5652C129.709 14.1935 129.517 13.8808 129.225 13.6285C128.93 13.3763 128.575 13.2495 128.165 13.2495C127.573 13.2495 127.11 13.4781 126.77 13.9368C126.433 14.3955 126.262 14.9811 126.262 15.6965C126.262 16.3838 126.424 16.9414 126.749 17.3706C127.092 17.8279 127.555 18.0565 128.135 18.0565C128.655 18.0565 129.071 17.8662 129.387 17.4842C129.693 17.1317 129.842 16.7069 129.842 16.2113Z" fill="white"/>
<path d="M145.045 15.6095C145.045 16.6789 144.732 17.555 144.105 18.2424C143.449 18.9489 142.58 19.3014 141.493 19.3014C140.447 19.3014 139.614 18.9636 138.991 18.2851C138.37 17.6081 138.06 16.7541 138.06 15.7245C138.06 14.6478 138.379 13.7643 139.021 13.0784C139.662 12.3925 140.525 12.0488 141.612 12.0488C142.658 12.0488 143.5 12.3866 144.136 13.0636C144.741 13.7215 145.045 14.5711 145.045 15.6095ZM143.402 15.6596C143.402 15.018 143.26 14.4678 142.977 14.0091C142.642 13.4545 142.17 13.1772 141.553 13.1772C140.918 13.1772 140.434 13.4545 140.099 14.0091C139.815 14.4678 139.674 15.0269 139.674 15.6877C139.674 16.3293 139.817 16.8795 140.099 17.3382C140.443 17.8928 140.921 18.1701 141.538 18.1701C142.143 18.1701 142.62 17.8884 142.962 17.3234C143.254 16.8559 143.402 16.3013 143.402 15.6596Z" fill="white"/>
<path d="M153.57 19.1436H151.986V15.1611C151.986 13.9339 151.508 13.3203 150.547 13.3203C150.076 13.3203 149.697 13.4884 149.403 13.8262C149.11 14.164 148.963 14.5622 148.963 15.018V19.1421H147.376V14.1773C147.376 13.5666 147.358 12.9043 147.32 12.1875H148.712L148.786 13.2746H148.83C149.016 12.9368 149.291 12.658 149.651 12.4353C150.083 12.1757 150.562 12.0444 151.09 12.0444C151.754 12.0444 152.308 12.2539 152.748 12.6742C153.297 13.189 153.57 13.9575 153.57 14.9782V19.1436Z" fill="white"/>
<path d="M164.239 13.3483H162.494V16.7261C162.494 17.5845 162.804 18.0137 163.418 18.0137C163.702 18.0137 163.938 17.9901 164.125 17.9415L164.165 19.1141C163.852 19.2291 163.441 19.2867 162.934 19.2867C162.308 19.2867 161.82 19.1008 161.468 18.7291C161.114 18.3574 160.939 17.732 160.939 16.8544V13.3483H159.896V12.1904H160.939V10.916L162.492 10.4588V12.189H164.238V13.3483H164.239Z" fill="white"/>
<path d="M172.633 19.1436H171.046V15.1906C171.046 13.9442 170.568 13.3203 169.61 13.3203C168.875 13.3203 168.373 13.6816 168.097 14.4044C168.05 14.5563 168.023 14.7422 168.023 14.9605V19.1421H166.439V9H168.023V13.1905H168.053C168.553 12.4279 169.268 12.0473 170.195 12.0473C170.852 12.0473 171.395 12.2568 171.826 12.6772C172.363 13.2008 172.633 13.9796 172.633 15.0091V19.1436Z" fill="white"/>
<path d="M181.29 15.3381C181.29 15.6154 181.269 15.8484 181.231 16.0387H176.477C176.498 16.7261 176.725 17.2497 177.165 17.6125C177.567 17.937 178.086 18.0993 178.722 18.0993C179.425 18.0993 180.067 17.9901 180.645 17.7704L180.893 18.8442C180.216 19.1303 179.421 19.2734 178.499 19.2734C177.395 19.2734 176.525 18.9563 175.896 18.322C175.263 17.6878 174.95 16.8367 174.95 15.7688C174.95 14.7201 175.242 13.8469 175.831 13.1507C176.445 12.4073 177.275 12.0356 178.324 12.0356C179.35 12.0356 180.129 12.4073 180.655 13.1507C181.08 13.7407 181.29 14.4708 181.29 15.3381ZM179.778 14.9384C179.79 14.4796 179.685 14.0843 179.471 13.751C179.195 13.3218 178.776 13.1064 178.209 13.1064C177.691 13.1064 177.269 13.3159 176.947 13.7362C176.684 14.0711 176.528 14.4708 176.477 14.9384H179.778Z" fill="white"/>
</svg>
