<?xml version="1.0" encoding="UTF-8" standalone="no"?>
<svg
   height="59.553207"
   viewBox="-0.36 95.21 25.082135 59.553208"
   width="249.99138"
   version="1.1"
   id="svg12"
   sodipodi:docname="brightdata.svg"
   inkscape:version="1.1.2 (0a00cf5339, 2022-02-04)"
   xmlns:inkscape="http://www.inkscape.org/namespaces/inkscape"
   xmlns:sodipodi="http://sodipodi.sourceforge.net/DTD/sodipodi-0.dtd"
   xmlns="http://www.w3.org/2000/svg"
   >
  <defs
     id="defs16" />
  <sodipodi:namedview
     id="namedview14"
     pagecolor="#ffffff"
     bordercolor="#666666"
     borderopacity="1.0"
     inkscape:pageshadow="2"
     inkscape:pageopacity="0.0"
     inkscape:pagecheckerboard="0"
     showgrid="false"
     fit-margin-top="0"
     fit-margin-left="0"
     fit-margin-right="0"
     fit-margin-bottom="0"
     inkscape:zoom="0.9464"
     inkscape:cx="22.189349"
     inkscape:cy="-90.870668"
     inkscape:window-width="1920"
     inkscape:window-height="1051"
     inkscape:window-x="1920"
     inkscape:window-y="0"
     inkscape:window-maximized="1"
     inkscape:current-layer="svg12" />
  <path
     d="m -34.416031,129.28 c -3.97,-2.43 -5.1,-6.09 -4.32,-10.35 0.81,-4.4 3.95,-6.75 8.04,-7.75 4.23,-1.04 8.44,-0.86 12.3,1.5 0.63,0.39 0.93,0.03 1.31,-0.29 1.5,-1.26 3.27,-1.72 5.189999,-1.83 0.79,-0.05 1.04,0.24 1.01,1.01 -0.05,1.31 -0.04,2.63 0,3.95 0.02,0.65 -0.19,0.93 -0.87,0.89 -0.889999,-0.04 -1.789999,0.03 -2.669999,-0.02 -0.82,-0.04 -1.08,0.1 -0.88,1.04 0.83,3.9 -0.06,7.37 -3.1,10.06 -2.76,2.44 -6.13,3.15 -9.72,3.04 -0.51,-0.02 -1.03,-0.02 -1.52,-0.13 -1.22,-0.25 -1.96,0.14 -2.19,1.41 -0.28,1.54 0.16,2.62 1.37,3.07 0.84,0.31 1.74,0.35 2.63,0.39 2.97,0.13 5.95,-0.18 8.91,0.21 2.93,0.39 5.69,1.16 6.85,4.25 1.269999,3.38 0.809999,6.62 -1.48,9.47 -2.73,3.39 -6.52,4.78 -10.66,5.33 -3.53,0.48 -7.04,0.27 -10.39,-1.11 -3.89,-1.6 -5.75,-4.95 -4.84,-8.72 0.51,-2.11 1.85,-3.58 3.69,-4.65 0.38,-0.22 0.93,-0.32 0.28,-0.96 -2.91,-2.83 -2.85,-6.16 0.1,-8.95 0.28,-0.26 0.6,-0.53 0.96,-0.86 z m 8.07,21.5 c 0.95,0.04 1.87,-0.13 2.78,-0.33 1.89,-0.42 3.51,-1.3 4.49,-3.06 1.82,-3.25 0.24,-6.2 -3.37,-6.58 -2.88,-0.3 -5.76,0.24 -8.63,-0.13 -0.53,-0.07 -0.75,0.34 -0.95,0.71 -1.16,2.24 -1.08,4.53 0,6.73 1.15,2.34 3.46,2.48 5.68,2.66 z m -5,-30.61 c -0.03,1.67 0.08,3.19 0.74,4.61 0.76,1.62 2.17,2.42 4.03,2.31 1.62,-0.1 2.9,-1.12 3.36,-2.84 0.66,-2.46 0.69,-4.95 0.01,-7.42 -0.49,-1.76 -1.7,-2.64 -3.56,-2.7 -2.08,-0.07 -3.37,0.7 -4.04,2.42 -0.47,1.21 -0.6,2.47 -0.54,3.62 z m 32.9399993,6.56 c 0,2.59 0.05,5.18 -0.02,7.77 -0.03,1.03 0.31,1.46 1.32,1.52 0.65,0.04 1.61,-0.09 1.82,0.57 0.26,0.81 0.11,1.76 0.06,2.65 -0.03,0.48 -0.81,0.39 -0.81,0.39 l -11.47,0.01 c 0,0 -0.95,-0.21 -0.88,-0.88 0.03,-0.29 0.04,-0.6 0,-0.89 -0.19,-1.24 0.21,-1.92 1.58,-1.9 0.99,0.01 1.28,-0.52 1.28,-1.53 -0.05,-8.75 -0.05,-17.49 0,-26.24 0.01,-1.15 -0.36,-1.62 -1.44,-1.67 -0.17,-0.01 -0.34,-0.04 -0.5,-0.07 -1.43,-0.22 -2.12,-1.57 -1.53,-2.91 0.15,-0.35 0.43,-0.36 0.72,-0.4 2.94,-0.41 5.88,-0.81 8.82000002,-1.23 0.81999998,-0.12 0.99999998,0.27 0.98999998,1.01 -0.02,3.35 0,6.71 0.02,10.06 0,0.35 -0.23,0.84 0.18,1.03 0.38,0.17 0.69,-0.25 0.99,-0.45 2.56,-1.74 5.33,-2.73 8.4900007,-2.56 3.51005,0.19 5.65005,1.95 6.35005,5.46 0.42,2.09 0.52,4.21 0.51,6.33 -0.02,3.86 0.05,7.73 -0.04,11.59 -0.02,1.12 0.37,1.5 1.39,1.6 0.61,0.05 1.55,-0.13 1.74,0.47 0.26,0.85 0.12,1.84 0.1,2.77 -0.01,0.41 -0.69,0.37 -0.69,0.37 l -11.4700504,0.01 c 0,0 -0.81,-0.29 -0.8,-0.85 0.01,-0.38 0.04,-0.77 -0.01,-1.15 -0.13,-1.01 0.32,-1.52 1.31,-1.56 1.0600004,-0.05 1.3800004,-0.55 1.3500004,-1.63 -0.14,-4.84 0.16,-9.68 -0.18,-14.51 -0.26,-3.66 -2.1100004,-4.95 -5.6700007,-3.99 -0.25,0.07 -0.49,0.15 -0.73,0.22 -2.57,0.8 -2.79,1.09 -2.79,3.71 0.01,2.3 0.01,4.59 0.01,6.88 z M -109.26603,122.56 c 0,-4.75 -0.02,-9.51 0.02,-14.26 0.01,-0.92 -0.17,-1.47 -1.19,-1.45 -0.16,0 -0.33,-0.07 -0.5,-0.1 -1.56,-0.27 -2.24,-1.47 -1.69,-2.92 0.14,-0.37 0.41,-0.38 0.7,-0.42 2.98,-0.41 5.97,-0.81 8.94,-1.24 0.85,-0.12 0.88,0.33 0.88,0.96 -0.01,3.01 -0.01,6.03 0,9.04 0,0.4 -0.18,0.96 0.27,1.16 0.36,0.16 0.66,-0.3 0.96,-0.52 4.729999,-3.51 12.459999,-2.61 14.889999,4.48 1.89,5.51 1.91,11.06 -0.96,16.28 -2.37,4.31 -6.19,6.49 -11.15,6.59 -3.379999,0.07 -6.679999,-0.3 -9.909999,-1.37 -0.93,-0.31 -1.3,-0.78 -1.28,-1.83 0.05,-4.81 0.02,-9.6 0.02,-14.4 z m 7.15,3.89 c 0,2.76 0.02,5.52 -0.01,8.28 -0.01,0.76 0.18,1.29 0.91,1.64 1.899999,0.9 4.299999,0.5 5.759999,-1.01 0.97,-1 1.56,-2.21 1.96,-3.52 1.03,-3.36 0.97,-6.78 0.61,-10.22 a 9.991,9.991 0 0 0 -0.93,-3.29 c -1.47,-3.06 -4.67,-3.85 -7.439999,-1.86 -0.6,0.43 -0.88,0.93 -0.87,1.7 0.04,2.76 0.01,5.52 0.01,8.28 z"
     fill="#4280f6"
     id="path2" />
  <path
     d="m 68.644019,137.2 c -1.62,1.46 -3.41,2.56 -5.62,2.96 -4.4,0.8 -8.7,-1.39 -10.49,-5.49 -2.31,-5.31 -2.3,-10.67 -0.1,-15.98 2.31,-5.58 8.29,-8.65 14.24,-7.46 1.71,0.34 1.9,0.18 1.9,-1.55 0,-0.68 -0.05,-1.36 0.01,-2.04 0.09,-1.02 -0.25,-1.54 -1.34,-1.43 -0.64,0.06 -1.26,-0.1 -1.88,-0.21 -1.32,-0.24 -1.6,-0.62 -1.37,-1.97 0.07,-0.41 0.25,-0.57 0.65,-0.62 2.63,-0.33 5.27,-0.66 7.9,-1.02 1.04,-0.14 1.17,0.37 1.17,1.25 -0.02,10.23 -0.02,20.45 -0.01,30.68 v 1.02 c 0.02,0.99 0.35,1.6 1.52,1.47 0.52,-0.06 1.35,-0.27 1.25,0.73 -0.08,0.8 0.58,1.93 -0.94,2.18 -1.29,0.22 -2.51,0.69 -3.86,0.65 -2.04,-0.06 -2.3,-0.23 -2.76,-2.19 -0.09,-0.3 0.06,-0.67 -0.27,-0.98 z m -0.07,-12.46 c 0,-2.8 -0.04,-5.6 0.02,-8.39 0.02,-0.9 -0.28,-1.47 -1.05,-1.81 -3.18,-1.4 -7.54,-0.8 -9.3,2.87 -0.83,1.74 -1.31,3.54 -1.49,5.46 -0.28,2.93 -0.38,5.83 0.61,8.65 0.73,2.09 1.81,3.9 4.11,4.67 2.49,0.83 4.55,-0.04 6.5,-1.48 0.54,-0.4 0.62,-0.95 0.61,-1.57 -0.02,-2.8 -0.01,-5.6 -0.01,-8.4 z m 28.79,2.53 c 0,3.24 0.04,5.83 -0.02,8.41 -0.02,1 0.19,1.49 1.309998,1.41 0.55,-0.04 1.460003,-0.46 1.520003,0.73 0.05,1.02 0.1,1.89 -1.330003,2.08 -1.289998,0.17 -2.559998,0.51 -3.889998,0.48 -1.88,-0.05 -2.15,-0.26 -2.42,-2.15 -0.04,-0.27 0.14,-0.65 -0.22,-0.79 -0.34,-0.13 -0.5,0.24 -0.72,0.42 -3.61,3 -8.15,3.4 -11.64,1.08 -1.61,-1.07 -2.49,-2.63 -2.67,-4.43 -0.51,-5.13 0.77,-7.91 6.3,-10.22 2.44,-1.02 5.07,-1.27 7.68,-1.49 0.77,-0.07 1.03,-0.28 1.02,-1.05 -0.03,-1.48 -0.05,-2.94 -0.64,-4.36 -0.59,-1.42 -1.67,-1.92 -3.08,-2.03 -3.04,-0.24 -5.88,0.5 -8.63,1.71 -0.51,0.23 -1.19,0.75 -1.48,-0.13 -0.26,-0.77 -1.35,-1.61 0.05,-2.47 3.27,-2 6.7,-3.44 10.61,-3.42 1.44,0.01 2.88,0.27 4.21,0.81 2.67,1.08 3.44,3.4 3.8,5.99 0.46,3.37 0.1,6.73 0.24,9.42 z m -5.09,2.9 c 0,-1.23 -0.01,-2.46 0,-3.69 0,-0.52 -0.06,-0.98 -0.75,-0.84 -1.45,0.3 -2.93,0.28 -4.37,0.69 -3.71,1.04 -5.46,4.48 -3.97,8.03 0.51,1.22 1.48,1.98 2.79,2.16 2.01,0.28 3.86,-0.29 5.6,-1.28 0.54,-0.31 0.73,-0.76 0.72,-1.37 -0.05,-1.23 -0.02,-2.47 -0.02,-3.7 z m 43.060001,-2.89 c 0,2.72 0.01,5.43 -0.01,8.15 0,0.66 0.02,1.21 0.91,1.12 0.54,-0.06 0.99,0.12 0.86,0.75 -0.15,0.71 0.56,1.7 -0.58,2.09 -1.55,0.52 -3.16,0.59 -4.77,0.4 -0.99,-0.12 -1.12,-1.01 -1.18,-1.73 -0.08,-1.15 -0.16,-1.45 -1.24,-0.54 -3.41,2.87 -8.05,3.17 -11.43,0.88 -1.75,-1.18 -2.49,-2.91 -2.7,-4.94 -0.64,-6.24 3.16,-8.74 7.83,-10.17 2.04,-0.62 4.14,-0.8 6.24,-0.99 0.81,-0.07 1,-0.36 0.98,-1.09 -0.04,-1.31 0.04,-2.62 -0.42,-3.89 -0.57,-1.57 -1.53,-2.34 -3.18,-2.45 -3.03,-0.21 -5.88,0.46 -8.64,1.66 -0.6,0.26 -1.25,0.81 -1.68,-0.2 -0.34,-0.8 -1.08,-1.61 0.16,-2.36 4.12,-2.5 8.44,-4.16 13.36,-3.07 3.21,0.71 4.89,2.91 5.26,6.34 0.18,1.69 0.22,3.37 0.22,5.07 0.01,1.66 0.01,3.32 0.01,4.97 z m -5.09,2.54 c 0,-1.27 -0.03,-2.54 0.01,-3.81 0.02,-0.74 -0.27,-1.02 -0.98,-0.92 -1.21,0.17 -2.43,0.28 -3.62,0.55 -3.72,0.83 -5.47,3.48 -4.82,7.21 0.29,1.66 1.57,2.94 3.21,3.16 2.02,0.27 3.85,-0.34 5.57,-1.34 0.49,-0.29 0.64,-0.73 0.63,-1.29 -0.02,-1.18 0,-2.37 0,-3.56 z"
     fill="#c8dbfb"
     id="path4" />
  <path
     d="m 26.314019,125.77 c 0,-2.89 -0.05,-5.77 0.02,-8.66 0.03,-1.04 -0.33,-1.39 -1.31,-1.24 a 0.7,0.7 0 0 1 -0.25,0 c -0.57,-0.18 -1.44,0.48 -1.68,-0.58 -0.35,-1.48 -0.02,-2.3 1.21,-2.7 1.3,-0.43 2.16,-1.26 2.76,-2.46 0.78,-1.56 1.44,-3.17 1.91,-4.84 0.18,-0.63 0.47,-0.86 1.15,-0.88 3.28,-0.09 3.27,-0.11 3.32,3.17 0.01,1.06 0.09,2.12 0.09,3.18 -0.01,0.67 0.27,0.89 0.91,0.88 1.61,-0.02 3.23,0.03 4.84,-0.02 0.77,-0.02 1.01,0.23 1.03,1.01 0.08,3.27 0.1,3.27 -3.09,3.27 -0.93,0 -1.87,0.03 -2.8,-0.01 -0.67,-0.02 -0.89,0.26 -0.88,0.91 0.04,5.43 0.04,10.86 0.12,16.29 0.02,1.7 0.75,2.26 2.46,2.1 1.1,-0.1 2.19,-0.26 3.23,-0.65 0.59,-0.22 0.89,-0.09 1.14,0.53 0.93,2.29 0.92,2.37 -1.32,3.52 -2.54,1.3 -5.22,1.99 -8.1,1.79 -2.27,-0.16 -3.68,-1.27 -4.35,-3.45 -0.3,-0.98 -0.41,-1.99 -0.41,-3.01 z m -97.67005,-8.99 c 0.57,-0.84 1.11,-1.74 1.76,-2.55 1.68,-2.09 3.68,-3.62 6.54,-3.66 1.08,-0.01 1.63,0.28 1.57,1.52 -0.1,2.08 -0.05,4.16 -0.02,6.24 0.01,0.74 -0.17,0.96 -0.96,0.76 -2.36,-0.59 -4.71,-0.42 -7.03,0.28 -0.8,0.24 -1.16,0.62 -1.15,1.52 0.05,4.5 0.04,9 0,13.5 -0.01,0.89 0.29,1.16 1.15,1.2 1.23,0.06 2.44,0.32 3.67,0.39 0.75,0.05 0.91,0.38 0.89,1.04 -0.06,2.86 0.29,2.28 -2.25,2.3 -4.2,0.04 -8.41,-0.02 -12.61,0.03 -0.91,0.01 -1.39,-0.18 -1.22,-1.18 0.02,-0.12 0,-0.25 0,-0.38 0.02,-2.1 -0.24,-1.88 1.77,-2.04 1.33,-0.11 1.6,-0.67 1.58,-1.9 -0.07,-5.35 -0.04,-10.7 -0.02,-16.05 0,-0.78 -0.17,-1.2 -1,-1.46 -2.21,-0.68 -2.7,-1.69 -2.22,-3.99 0.11,-0.52 0.45,-0.56 0.82,-0.62 2.22,-0.34 4.44,-0.7 6.67,-0.99 0.99,-0.13 1.82,0.7 1.84,1.76 0.03,1.4 0.03,2.8 0.04,4.2 -0.01,0.02 0.06,0.04 0.18,0.08 z m 25.24,6.59 c 0,3.69 0.04,7.38 -0.03,11.07 -0.02,1.04 0.31,1.48 1.32,1.49 0.29,0 0.59,0.12 0.88,0.13 0.93,0.01 1.18,0.47 1.16,1.37 -0.05,2.19 0,2.19 -2.24,2.19 -3.48,0 -6.96,-0.04 -10.44,0.03 -1.09,0.02 -1.47,-0.33 -1.3,-1.36 0.02,-0.12 0.02,-0.26 0,-0.38 -0.28,-1.39 0.39,-1.96 1.7,-1.9 1.36,0.06 1.76,-0.51 1.74,-1.88 -0.09,-5.17 -0.08,-10.35 0,-15.53 0.02,-1.22 -0.32,-1.87 -1.52,-2.17 -0.57,-0.14 -1.47,-0.11 -1.57,-0.85 -0.15,-1.04 -0.05,-2.11 0.01,-3.17 0.02,-0.34 0.44,-0.35 0.73,-0.39 2.81,-0.39 5.63,-0.77 8.44,-1.18 0.92,-0.14 1.15,0.2 1.14,1.09 -0.04,3.8 -0.02,7.62 -0.02,11.44 z"
     fill="#4280f6"
     id="path6" />
  <path
     d="m 101.44402,125.64 c 0,-3.18 -0.03,-6.37 0.02,-9.55 0.02,-0.94 -0.26,-1.36 -1.22,-1.22 -0.21,0.03 -0.430003,0.04 -0.630003,0 -0.51,-0.12 -1.35,0.39 -1.44,-0.55 -0.08,-0.85 -0.429998,-1.87 0.93,-2.24 2.080003,-0.57 2.720003,-2.39 3.350003,-4.17 0.31,-0.88 0.62,-1.76 0.87,-2.66 0.18,-0.64 0.52,-0.85 1.19,-0.84 2.46,0.05 2,-0.15 2.04,2.04 0.02,1.1 0.08,2.21 -0.02,3.31 -0.11,1.16 0.46,1.52 1.46,1.53 1.78,0.01 3.57,0.04 5.35,-0.01 0.82,-0.02 1.12,0.23 1.11,1.08 -0.05,2.86 0.19,2.49 -2.42,2.51 -1.53,0.01 -3.06,0.02 -4.59,-0.01 -0.65,-0.01 -0.9,0.22 -0.9,0.89 0.02,5.52 0,11.04 0.03,16.56 0,0.67 0.14,1.34 0.25,2.01 0.17,1.04 1.17,1.62 2.59,1.42 1.29,-0.19 2.57,-0.49 3.86,-0.69 0.43,-0.07 1.05,-0.47 1.19,0.4 0.12,0.75 1.05,1.61 -0.09,2.24 -2.09,1.16 -4.28,2.07 -6.71,2.16 -1.05,0.04 -2.13,0.2 -3.16,-0.14 -1.92,-0.65 -3.03,-2.28 -3.05,-4.51 -0.02,-3.19 -0.01,-6.37 -0.01,-9.56 z"
     fill="#c8dbfb"
     id="path8" />
  <path
     d="m -50.816031,95.21 c 0.19,2.160002 1.85,3.240002 2.82,4.740002 0.25,0.379998 0.48,0.109998 0.67,-0.16 0.21,-0.31 0.6,-1.21 1.15,-1.28 -0.35,1.38 -0.04,3.149998 0.16,4.449998 0.49,3.05 -1.22,5.64 -4.07,6.18 -3.38,0.65 -6.22,-2.21 -5.6,-5.62 0.23,-1.24 1.37,-2.5 0.77,-3.699998 -0.85,-1.7 0.54,-0.52 0.79,-0.22 1.04,1.199998 1.21,0.09 1.45,-0.55 0.24,-0.63 0.31,-1.31 0.47,-1.97 0.19,-0.770002 0.55,-1.400002 1.39,-1.870002 z"
     fill="#4280f6"
     id="path10" />
</svg>
