<?xml version="1.0" encoding="UTF-8" standalone="no"?>
<!-- Uploaded to: SVG Repo, www.svgrepo.com, Generator: SVG Repo Mixer Tools -->

<svg
   fill="#FFFFFF"
   height="7.5005589"
   width="11.248507"
   version="1.1"
   id="email"
   viewBox="0 0 7.1975545 4.7993639"
   xml:space="preserve"
   xmlns="http://www.w3.org/2000/svg"
   ><defs
   id="defs19" />
<g
   id="g14"
   transform="matrix(-0.01406065,0,0,0.01406065,7.1975543,-1.1990922)">
	<g
   id="g12">
		<g
   id="g10">
			<path
   d="M 468.373,85.28 H 45.333 C 21.227,85.28 0,105.76 0,129.014 V 383.2 c 0,23.147 21.227,43.413 45.333,43.413 h 422.933 c 23.68,0 43.627,-19.84 43.627,-43.413 V 129.014 C 512,105.334 492.053,85.28 468.373,85.28 Z m 0,320 H 45.333 c -12.373,0 -24,-10.773 -24,-22.08 V 129.014 c 0,-11.307 11.84,-22.4 24,-22.4 h 422.933 c 11.733,0 22.293,10.667 22.293,22.4 V 383.2 h 0.107 c 10e-4,11.734 -10.453,22.08 -22.293,22.08 z"
   id="path2" />
			<path
   d="m 440.853,153.974 c -3.307,-4.907 -9.92,-6.187 -14.827,-2.987 L 256,264.48 85.973,151.094 c -4.907,-3.2 -11.52,-1.707 -14.72,3.2 -3.093,4.8 -1.813,11.307 2.88,14.507 l 176,117.333 c 3.627,2.347 8.213,2.347 11.84,0 l 176,-117.333 c 4.8,-3.201 6.187,-9.921 2.88,-14.827 z"
   id="path4" />
			<path
   d="m 143.573,257.654 c -0.107,0.107 -0.32,0.213 -0.427,0.32 L 68.48,311.307 c -4.907,3.307 -6.187,9.92 -2.88,14.827 3.307,4.907 9.92,6.187 14.827,2.88 0.107,-0.107 0.32,-0.213 0.427,-0.32 l 74.667,-53.333 c 4.907,-3.307 6.187,-9.92 2.88,-14.827 -3.308,-4.907 -9.921,-6.187 -14.828,-2.88 z"
   id="path6" />
			<path
   d="m 443.947,311.627 c -0.107,-0.107 -0.32,-0.213 -0.427,-0.32 l -74.667,-53.333 c -4.693,-3.52 -11.413,-2.56 -14.933,2.133 -3.52,4.693 -2.56,11.413 2.133,14.933 0.107,0.107 0.32,0.213 0.427,0.32 l 74.667,53.333 c 4.693,3.52 11.413,2.56 14.933,-2.133 3.52,-4.693 2.56,-11.413 -2.133,-14.933 z"
   id="path8" />
		</g>
	</g>
</g>
</svg>
