<?xml version="1.0" encoding="UTF-8"?>
<!-- Created with Inkscape (http://www.inkscape.org/) -->
<svg width="61.649mm" height="61.649mm" version="1.1" viewBox="0 0 61.649 61.649" xml:space="preserve" xmlns="http://www.w3.org/2000/svg"><g transform="translate(66.269 -15.463)" fill="#3056d3"><g transform="matrix(1.423 0 0 1.423 101.16 69.23)" fill="#3056d3"><g transform="matrix(.8229 0 0 .8229 -23.378 -2.3935)" fill="#3056d3"><path d="m-88.248-43.007a26.323 26.323 0 0 0-26.323 26.323 26.323 26.323 0 0 0 26.323 26.323 26.323 26.323 0 0 0 26.323-26.323 26.323 26.323 0 0 0-26.323-26.323zm0 2.8417a23.482 23.482 0 0 1 23.482 23.482 23.482 23.482 0 0 1-23.482 23.482 23.482 23.482 0 0 1-23.482-23.482 23.482 23.482 0 0 1 23.482-23.482z"/><g transform="matrix(.26458 0 0 .26458 -115.65 -44.085)"><path d="m33.02 64.43c0.35-0.05 2.04-0.13 2.04-0.13h25.53s3.17 0.32 3.67 0.53c2.5 1.05 3.98 1.89 6.04 3.57 0.72 0.58 4.12 4.01 4.12 4.01l51.67 57.39s1.61 1.65 1.97 1.94c1.2 0.97 2.48 1.96 3.98 2.32 0.5 0.12 2.72 0.21 2.72 0.21h27.32l-8.83-9.04s-1.31-1.65-1.44-1.94c-0.45-0.93-0.59-2.59-0.13-3.51 0.35-0.69 1.46-1.87 2.23-1.98 1.03-0.14 2.12-0.39 3.02 0.14 0.33 0.2 1.64 1.32 1.64 1.32l17.49 17.49s1.35 1.09 1.6 1.6c0.17 0.34 0.29 0.82 0.15 1.18-0.17 0.42-1.42 1.63-1.42 1.63l-0.94 0.98-15.69 16.37s-1.44 1.4-1.79 1.67c-0.76 0.6-1.99 0.89-2.96 0.9-1.03 0-2.62-1.11-3.26-1.91-0.6-0.76-1.1-2.22-0.77-3.13 0.16-0.45 1.28-1.85 1.28-1.85l11.36-11.3-29.47-0.02-1.68 0.09s-4.16-0.66-5.26-1.03c-1.63-0.56-3.44-1.82-4.75-2.93-0.39-0.33-1.8-1.92-1.8-1.92l-51.7-59.28s-2-2.06-2.43-2.43c-1.37-1.17-2-1.62-3.76-2.34-0.44-0.18-3.45-0.55-3.45-0.55l-24.13-0.22s-2.23-0.15-2.61-0.22c-1.08-0.21-2.16-1.07-2.81-1.83-0.79-0.92-0.59-3.06 0.06-4.09 0.57-0.89 2.14-1.52 3.19-1.66z"/><path d="m86.1 109.7-17.13 19.65s-2 2.06-2.43 2.43c-1.37 1.17-2 1.62-3.76 2.34-0.44 0.18-3.45 0.55-3.45 0.55l-24.13 0.22s-2.23 0.15-2.61 0.22c-1.08 0.21-2.16 1.07-2.81 1.83-0.79 0.92-0.59 3.06 0.06 4.09 0.57 0.89 2.14 1.52 3.19 1.66 0.35 0.05 2.04 0.13 2.04 0.13h25.53s3.17-0.32 3.67-0.53c2.5-1.05 3.98-1.89 6.04-3.57 0.72-0.58 4.12-4.01 4.12-4.01l17.38-19.3z"/><path d="m177.81 67.6c-0.17-0.42-1.42-1.63-1.42-1.63l-0.94-0.98-15.69-16.37s-1.44-1.4-1.79-1.67c-0.76-0.6-1.99-0.89-2.96-0.9-1.03 0-2.62 1.11-3.26 1.91-0.6 0.76-1.1 2.22-0.77 3.13 0.16 0.45 1.28 1.85 1.28 1.85l11.36 11.3-29.47 0.02-1.68-0.09s-4.16 0.66-5.26 1.03c-1.63 0.56-3.44 1.82-4.75 2.93-0.39 0.33-1.8 1.92-1.8 1.92l-18.91 21.69 5.98 5.98 18.38-20.41s1.61-1.65 1.97-1.94c1.2-0.97 2.48-1.96 3.98-2.32 0.5-0.12 2.72-0.21 2.72-0.21h27.32l-8.83 9.04s-1.31 1.65-1.44 1.94c-0.45 0.93-0.59 2.59-0.13 3.51 0.35 0.69 1.46 1.87 2.23 1.98 1.03 0.14 2.12 0.39 3.02-0.14 0.33-0.2 1.64-1.32 1.64-1.32l17.49-17.49s1.35-1.09 1.6-1.6c0.17-0.34 0.29-0.82 0.15-1.18z"/></g></g></g></g></svg>
