<svg id="svg2" xmlns="http://www.w3.org/2000/svg" width="9.5" height="15" viewBox="0 0 9.5 15"><path id="path3740" d="M2.2,0A2.41,2.41,0,0,0,0,1.5V2.8H2.2V0Z" transform="translate(0 0)" style="fill:#0078e7"/><path id="rect3728" d="M.3,1.7l-.2,1H2.2V.2A2.76,2.76,0,0,0,.3,1.7Z" transform="translate(0 0)" style="fill:#0078e7"/><path id="path3655" d="M9.5,2.6h0L2.3,0,2,.2,9.2,2.8v.1" transform="translate(0 0)" style="fill:#0078e7"/><path id="path3645" d="M9.2,2.8V13.3l.2-.3V2.5" transform="translate(0 0)" style="fill:#0078e7"/><path id="rect3517" d="M2,.2,9.2,2.8V13.4L2,10.8Z" transform="translate(0 0)" style="fill:#0078e7"/><path id="path3657" d="M2.1.2,9.2,2.8" transform="translate(0 0)" style="fill:#0078e7;stroke:#0078e7;stroke-miterlimit:4.660399913787842;stroke-width:0.10000000149011612px"/><path id="path3684" d="M.5,9.6.6,2.4.4,2.3S1.2,1.1,2,1L8.8,3.4v.1" transform="translate(0 0)" style="fill:#fff;fill-rule:evenodd"/><path id="path3679" d="M8.9,3.4,8.7,13,7.3,14.3.5,11.9V9.5" transform="translate(0 0)" style="fill:#fff;fill-rule:evenodd"/><path id="path3669" d="M7.5,4.2h0L.3,1.6,0,1.9,7.2,4.5v.1" transform="translate(0 0)" style="fill:#0078e7"/><path id="path3671" d="M7.2,4.5V15l.2-.3V4.2" transform="translate(0 0)" style="fill:#0078e7"/><path id="path3673" d="M0,1.9,7.2,4.5V15L0,12.4Z" transform="translate(0 0)" style="fill:#0078e7"/><path id="path3675" d="M.1,1.9,7.2,4.5" transform="translate(0 0)" style="fill:#0078e7;stroke:#0078e7;stroke-miterlimit:4.660399913787842;stroke-width:0.10000000149011612px"/></svg>