<?xml version="1.0" encoding="UTF-8" standalone="no"?>
<svg
   viewBox="0 0 745.50665 150.46101"
   width="745.50665"
   height="150.46101"
   version="1.1"
   id="svg8"
   sodipodi:docname="oxylabs.svg"
   inkscape:version="1.1.2 (0a00cf5339, 2022-02-04)"
   xmlns:inkscape="http://www.inkscape.org/namespaces/inkscape"
   xmlns:sodipodi="http://sodipodi.sourceforge.net/DTD/sodipodi-0.dtd"
   xmlns="http://www.w3.org/2000/svg"
   >
  <defs
     id="defs12" />
  <sodipodi:namedview
     id="namedview10"
     pagecolor="#ffffff"
     bordercolor="#666666"
     borderopacity="1.0"
     inkscape:pageshadow="2"
     inkscape:pageopacity="0.0"
     inkscape:pagecheckerboard="0"
     showgrid="false"
     fit-margin-top="0"
     fit-margin-left="0"
     fit-margin-right="0"
     fit-margin-bottom="0"
     inkscape:zoom="1.47875"
     inkscape:cx="371.25951"
     inkscape:cy="73.710904"
     inkscape:window-width="1920"
     inkscape:window-height="1051"
     inkscape:window-x="1920"
     inkscape:window-y="0"
     inkscape:window-maximized="1"
     inkscape:current-layer="oxylabs" />
  <style
     id="style2"> tspan { white-space:pre } .shp0 { opacity: 0.302;fill: #23e6a8 } .shp1 { fill: #23e6a8 } .shp2 { fill: #130f35 } </style>
  <g
     id="oxylabs"
     transform="translate(-29.336116,-151.66316)">
    <path
       id="right"
       class="shp0"
       d="m 134.41,227.34 36.46,-39.07 c 4.08,-4.13 6.32,-9.74 6.2,-15.55 -0.11,-5.81 -2.58,-11.32 -6.83,-15.29 -4.24,-3.96 -9.91,-6.03 -15.71,-5.74 -5.81,0.28 -11.24,2.91 -15.08,7.27 l -50.17,53.73 c -1.83,1.97 -3.28,4.27 -4.27,6.78 -0.99,2.51 -1.5,5.18 -1.5,7.88 0,2.69 0.51,5.37 1.5,7.87 0.99,2.51 2.44,4.81 4.27,6.78 l 50.17,53.74 c 3.93,3.98 9.26,6.26 14.85,6.38 5.59,0.11 11,-1.96 15.09,-5.77 4.09,-3.82 6.53,-9.08 6.81,-14.66 0.27,-5.59 -1.64,-11.06 -5.33,-15.26 z" />
    <path
       id="left"
       class="shp1"
       d="M 72.01,227.34 35.55,188.27 c -4.09,-4.13 -6.32,-9.74 -6.21,-15.55 0.12,-5.81 2.58,-11.32 6.83,-15.29 4.25,-3.96 9.92,-6.03 15.72,-5.74 5.8,0.28 11.24,2.91 15.08,7.27 l 50.16,53.73 c 1.84,1.97 3.29,4.27 4.28,6.78 0.99,2.51 1.49,5.18 1.49,7.88 0,2.69 -0.5,5.37 -1.49,7.87 -0.99,2.51 -2.44,4.81 -4.28,6.78 l -50.16,53.74 c -3.93,3.98 -9.26,6.26 -14.85,6.38 -5.59,0.11 -11.01,-1.96 -15.09,-5.77 -4.09,-3.82 -6.54,-9.08 -6.81,-14.66 -0.28,-5.59 1.63,-11.06 5.33,-15.26 z" />
    <path
       id="oxylabs-2"
       fill-rule="evenodd"
       class="shp2"
       d="m 736.04,207.96 c 0,1.99 1.32,3.62 3.97,4.88 0.78,0.36 1.57,0.69 2.36,1 0.8,0.32 1.6,0.61 2.41,0.89 0.81,0.28 1.63,0.53 2.45,0.77 0.82,0.23 1.65,0.45 2.49,0.65 0.96,0.24 1.93,0.5 2.89,0.77 0.96,0.27 1.92,0.56 2.87,0.86 0.95,0.3 1.9,0.62 2.84,0.94 0.95,0.33 1.89,0.68 2.82,1.03 0.96,0.37 1.89,0.8 2.78,1.3 0.9,0.5 1.76,1.05 2.58,1.67 0.82,0.61 1.59,1.28 2.32,2.01 0.73,0.72 1.4,1.49 2.02,2.31 0.68,0.91 1.28,1.87 1.8,2.89 0.52,1.01 0.95,2.06 1.28,3.15 0.34,1.08 0.59,2.2 0.74,3.32 0.15,1.13 0.2,2.27 0.16,3.4 0.08,1.72 -0.05,3.45 -0.4,5.13 -0.34,1.69 -0.9,3.33 -1.65,4.88 -0.76,1.54 -1.7,2.99 -2.81,4.31 -1.12,1.31 -2.39,2.48 -3.79,3.48 -1.58,1.07 -3.23,2.02 -4.96,2.83 -1.72,0.81 -3.51,1.48 -5.34,2.01 -1.83,0.53 -3.7,0.91 -5.59,1.14 -1.89,0.23 -3.8,0.32 -5.7,0.25 -15.45,0 -25.98,-5.97 -31.59,-17.89 l 16.84,-9.44 c 0.48,1.53 1.21,2.97 2.17,4.25 0.96,1.28 2.13,2.38 3.46,3.27 1.34,0.88 2.81,1.53 4.36,1.91 1.56,0.38 3.16,0.49 4.75,0.33 6.93,0 10.39,-2.15 10.39,-6.46 0,-1.98 -1.33,-3.61 -3.98,-4.88 -0.78,-0.35 -1.57,-0.69 -2.36,-1 -0.8,-0.32 -1.6,-0.62 -2.41,-0.9 -0.81,-0.29 -1.63,-0.55 -2.45,-0.8 -0.82,-0.24 -1.65,-0.47 -2.48,-0.67 -0.97,-0.26 -1.94,-0.53 -2.9,-0.82 -0.96,-0.28 -1.92,-0.58 -2.87,-0.89 -0.95,-0.32 -1.9,-0.64 -2.84,-0.99 -0.95,-0.34 -1.88,-0.69 -2.82,-1.06 -0.94,-0.37 -1.86,-0.8 -2.75,-1.29 -0.89,-0.49 -1.75,-1.04 -2.57,-1.64 -0.82,-0.6 -1.59,-1.25 -2.33,-1.96 -0.73,-0.7 -1.42,-1.45 -2.06,-2.24 -0.67,-0.86 -1.27,-1.78 -1.79,-2.75 -0.51,-0.96 -0.94,-1.97 -1.28,-3.01 -0.34,-1.05 -0.58,-2.11 -0.73,-3.2 -0.16,-1.08 -0.21,-2.18 -0.17,-3.27 -0.07,-1.68 0.06,-3.35 0.4,-5 0.33,-1.64 0.85,-3.23 1.56,-4.75 0.71,-1.52 1.61,-2.94 2.66,-4.25 1.05,-1.3 2.25,-2.48 3.58,-3.5 1.45,-1.08 3,-2.04 4.61,-2.87 1.61,-0.82 3.3,-1.51 5.03,-2.05 1.73,-0.54 3.5,-0.94 5.3,-1.18 1.8,-0.25 3.61,-0.34 5.42,-0.27 1.45,-0.02 2.9,0.05 4.34,0.22 1.44,0.17 2.87,0.42 4.28,0.77 1.4,0.35 2.79,0.79 4.14,1.31 1.35,0.52 2.67,1.13 3.94,1.82 1.24,0.68 2.43,1.45 3.57,2.29 1.13,0.85 2.2,1.77 3.21,2.77 1,0.99 1.93,2.06 2.79,3.19 0.85,1.12 1.63,2.31 2.32,3.54 l -16.55,9.01 c -0.48,-1.17 -1.14,-2.26 -1.96,-3.24 -0.81,-0.97 -1.77,-1.81 -2.85,-2.49 -1.07,-0.68 -2.24,-1.2 -3.46,-1.52 -1.23,-0.33 -2.5,-0.46 -3.77,-0.4 -0.54,-0.02 -1.09,0 -1.63,0.06 -0.55,0.06 -1.08,0.16 -1.61,0.3 -0.53,0.14 -1.05,0.31 -1.55,0.53 -0.5,0.22 -0.99,0.47 -1.45,0.76 -0.38,0.23 -0.73,0.51 -1.04,0.84 -0.3,0.32 -0.57,0.68 -0.78,1.07 -0.22,0.4 -0.38,0.81 -0.49,1.25 -0.1,0.43 -0.15,0.88 -0.14,1.32 z m -66.65,-23.42 c 2.44,-0.02 4.87,0.22 7.26,0.71 2.39,0.49 4.71,1.24 6.94,2.23 2.23,0.99 4.35,2.21 6.32,3.65 1.97,1.43 3.78,3.08 5.4,4.9 3.43,3.84 6.13,8.27 7.97,13.08 1.84,4.81 2.78,9.92 2.78,15.07 0,5.15 -0.94,10.26 -2.78,15.07 -1.84,4.81 -4.54,9.25 -7.97,13.09 -1.62,1.82 -3.44,3.46 -5.41,4.9 -1.97,1.44 -4.09,2.66 -6.32,3.65 -2.24,0.99 -4.57,1.74 -6.96,2.23 -2.39,0.49 -4.82,0.73 -7.26,0.7 -2.32,0.13 -4.64,-0.03 -6.91,-0.45 -2.28,-0.43 -4.5,-1.12 -6.61,-2.07 -2.11,-0.95 -4.1,-2.15 -5.93,-3.57 -1.83,-1.42 -3.48,-3.05 -4.93,-4.87 v 8.86 h -19.4 V 156.6 h 19.4 v 38.89 c 1.45,-1.81 3.1,-3.44 4.93,-4.87 1.83,-1.42 3.82,-2.62 5.94,-3.56 2.11,-0.95 4.33,-1.65 6.61,-2.07 2.28,-0.43 4.6,-0.58 6.91,-0.45 z m -18.5,54.96 c 2.01,1.87 4.36,3.35 6.91,4.35 2.56,1 5.29,1.52 8.03,1.51 2.75,-0.01 5.47,-0.53 8.03,-1.55 2.55,-1.01 4.89,-2.5 6.89,-4.39 1.9,-2.05 3.39,-4.45 4.41,-7.06 1.01,-2.6 1.53,-5.38 1.53,-8.18 0,-2.79 -0.52,-5.57 -1.53,-8.18 -1.02,-2.6 -2.51,-5 -4.41,-7.06 -0.98,-0.97 -2.05,-1.85 -3.21,-2.61 -1.15,-0.75 -2.38,-1.39 -3.66,-1.9 -1.29,-0.51 -2.62,-0.89 -3.98,-1.12 -1.36,-0.24 -2.74,-0.34 -4.12,-0.3 -1.38,-0.04 -2.75,0.05 -4.11,0.29 -1.35,0.24 -2.68,0.61 -3.96,1.12 -1.28,0.51 -2.5,1.15 -3.65,1.91 -1.15,0.76 -2.21,1.64 -3.18,2.61 -0.98,1.01 -1.85,2.1 -2.6,3.28 -0.76,1.18 -1.39,2.43 -1.9,3.74 -0.5,1.31 -0.87,2.66 -1.1,4.04 -0.23,1.38 -0.32,2.78 -0.27,4.18 -0.05,1.41 0.04,2.81 0.27,4.2 0.24,1.38 0.6,2.74 1.11,4.06 0.5,1.31 1.13,2.57 1.88,3.75 0.76,1.19 1.63,2.3 2.6,3.31 z m -62.33,-52.86 h 19.41 v 75.08 h -19.41 v -8.85 c -1.46,1.81 -3.13,3.44 -4.97,4.86 -1.84,1.42 -3.85,2.61 -5.97,3.56 -2.12,0.95 -4.35,1.65 -6.64,2.07 -2.28,0.43 -4.61,0.59 -6.94,0.47 -2.43,0.02 -4.85,-0.22 -7.23,-0.72 -2.38,-0.49 -4.69,-1.24 -6.91,-2.23 -2.22,-0.99 -4.33,-2.21 -6.29,-3.64 -1.96,-1.44 -3.76,-3.08 -5.37,-4.9 -3.43,-3.84 -6.14,-8.27 -7.97,-13.08 -1.84,-4.82 -2.78,-9.92 -2.78,-15.07 0,-5.15 0.94,-10.26 2.78,-15.07 1.83,-4.82 4.54,-9.25 7.97,-13.09 1.61,-1.82 3.41,-3.46 5.37,-4.89 1.96,-1.44 4.07,-2.66 6.29,-3.65 2.22,-0.99 4.53,-1.73 6.91,-2.23 2.38,-0.49 4.8,-0.73 7.23,-0.71 2.33,-0.12 4.66,0.03 6.94,0.46 2.29,0.42 4.52,1.12 6.64,2.07 2.12,0.95 4.13,2.14 5.97,3.56 1.84,1.42 3.51,3.05 4.97,4.86 z m -28.89,57.21 c 2.56,1 5.29,1.52 8.03,1.51 2.75,-0.01 5.47,-0.53 8.03,-1.55 2.55,-1.01 4.89,-2.5 6.89,-4.39 1.89,-2.05 3.39,-4.45 4.41,-7.06 1.01,-2.6 1.53,-5.38 1.53,-8.18 0,-2.79 -0.52,-5.57 -1.53,-8.18 -1.02,-2.6 -2.52,-5 -4.41,-7.06 -0.98,-0.97 -2.05,-1.85 -3.21,-2.61 -1.15,-0.75 -2.38,-1.39 -3.66,-1.9 -1.29,-0.51 -2.62,-0.89 -3.98,-1.12 -1.36,-0.24 -2.74,-0.34 -4.12,-0.3 -1.38,-0.04 -2.75,0.05 -4.11,0.29 -1.35,0.24 -2.68,0.61 -3.96,1.12 -1.28,0.51 -2.5,1.15 -3.65,1.91 -1.15,0.76 -2.21,1.64 -3.18,2.61 -0.98,1.01 -1.85,2.1 -2.61,3.28 -0.75,1.18 -1.38,2.43 -1.89,3.74 -0.5,1.31 -0.87,2.66 -1.1,4.04 -0.23,1.38 -0.32,2.78 -0.27,4.18 -0.05,1.41 0.05,2.81 0.28,4.2 0.23,1.39 0.6,2.75 1.1,4.06 0.51,1.31 1.14,2.57 1.9,3.76 0.75,1.18 1.62,2.29 2.6,3.3 2.01,1.87 4.36,3.35 6.91,4.35 z m -65.43,17.87 V 152.11 h 19.4 V 261.72 Z M 464.3,186.64 h 20.76 l -27.38,75.08 c -0.69,2.28 -1.55,4.51 -2.57,6.67 -1.02,2.15 -2.19,4.23 -3.5,6.22 -1.32,1.98 -2.78,3.87 -4.37,5.65 -1.59,1.77 -3.3,3.43 -5.13,4.96 -1.73,1.24 -3.57,2.32 -5.5,3.24 -1.92,0.91 -3.93,1.65 -5.98,2.2 -2.06,0.56 -4.16,0.93 -6.28,1.12 -2.13,0.18 -4.26,0.17 -6.38,-0.03 v -18.01 c 1.09,0.08 2.18,0.07 3.27,-0.03 1.08,-0.1 2.16,-0.29 3.22,-0.57 1.05,-0.29 2.08,-0.65 3.07,-1.11 1,-0.45 1.95,-0.98 2.85,-1.6 0.87,-0.72 1.67,-1.5 2.42,-2.34 0.75,-0.84 1.43,-1.74 2.05,-2.68 0.62,-0.94 1.16,-1.92 1.64,-2.94 0.47,-1.02 0.87,-2.07 1.19,-3.15 l -30.84,-72.68 h 21.25 l 19.56,50.46 z m -58.67,75.08 h -22.42 l -16.24,-22.82 -16.39,22.82 h -22.42 l 27.53,-38.29 -26.32,-36.79 h 22.41 l 15.2,21.17 15.19,-21.17 h 22.27 l -26.33,36.64 z m -89.34,-9.31 c -3.76,3.63 -8.18,6.5 -13.02,8.46 -4.85,1.95 -10.02,2.96 -15.24,2.95 -5.23,-0.01 -10.4,-1.02 -15.24,-2.99 -4.84,-1.97 -9.25,-4.85 -12.99,-8.49 -5.6,-5.55 -9.42,-12.65 -10.96,-20.38 -1.55,-7.73 -0.76,-15.74 2.27,-23.02 3.03,-7.27 8.16,-13.48 14.74,-17.83 6.57,-4.35 14.29,-6.63 22.17,-6.57 2.62,-0.05 5.24,0.16 7.81,0.64 2.57,0.47 5.09,1.21 7.52,2.19 2.42,0.99 4.74,2.22 6.92,3.67 2.17,1.45 4.2,3.12 6.04,4.99 3.67,3.71 6.58,8.11 8.57,12.95 1.99,4.83 3.01,10.01 3.01,15.24 0,5.23 -1.02,10.4 -3.01,15.24 -1.99,4.83 -4.9,9.23 -8.57,12.95 z m -42.88,-13.37 c 1.95,1.86 4.23,3.34 6.73,4.34 2.5,1 5.17,1.52 7.86,1.52 2.7,0 5.37,-0.52 7.87,-1.52 2.5,-1 4.78,-2.48 6.73,-4.34 1.86,-2 3.34,-4.33 4.34,-6.87 1.01,-2.55 1.52,-5.26 1.52,-7.99 0,-2.74 -0.51,-5.45 -1.52,-7.99 -1,-2.55 -2.48,-4.88 -4.34,-6.88 -0.95,-0.95 -2,-1.81 -3.12,-2.55 -1.12,-0.75 -2.32,-1.38 -3.57,-1.88 -1.25,-0.5 -2.54,-0.87 -3.87,-1.11 -1.32,-0.24 -2.67,-0.34 -4.02,-0.31 -1.34,-0.03 -2.68,0.07 -4,0.3 -1.33,0.24 -2.62,0.61 -3.87,1.12 -1.24,0.5 -2.43,1.13 -3.55,1.87 -1.12,0.75 -2.15,1.61 -3.09,2.57 -1.85,2.01 -3.3,4.34 -4.29,6.88 -0.99,2.54 -1.5,5.24 -1.51,7.97 0,2.72 0.49,5.43 1.47,7.97 0.98,2.55 2.42,4.89 4.25,6.91 z" />
  </g>
</svg>
