<?xml version="1.0" encoding="utf-8"?>
<!-- Generator: Adobe Illustrator 25.4.1, SVG Export Plug-In . SVG Version: 6.00 Build 0)  -->
<svg version="1.1"
	 id="Capa_1" xmlns:cc="http://creativecommons.org/ns#" xmlns:dc="http://purl.org/dc/elements/1.1/" xmlns:rdf="http://www.w3.org/1999/02/22-rdf-syntax-ns#" xmlns:svg="http://www.w3.org/2000/svg"
	 xmlns="http://www.w3.org/2000/svg" xmlns:xlink="http://www.w3.org/1999/xlink" x="0px" y="0px" width="15px" height="15px"
	 viewBox="0 0 15 15" style="enable-background:new 0 0 15 15;" xml:space="preserve">
<style type="text/css">
	.st0{fill:#0078E7;}
</style>
<path id="path2" class="st0" d="M7.5,0C4.5,0,1.7,1.9,0.6,4.6c-1.2,2.7-0.6,6,1.5,8.1c2,2.1,5.2,2.9,7.9,1.9c2.8-1,4.9-3.7,5-6.7
	c0.2-2.9-1.5-5.8-4.1-7.1C9.9,0.3,8.7,0,7.5,0z M6.6,10.3c0,0.5-0.6,0.5-0.9,0.5c-0.3,0-0.8,0.1-0.9-0.4c0-1.9,0-3.8,0-5.7
	c0.1-0.5,0.7-0.3,1.1-0.4c0.4-0.1,0.8,0.2,0.7,0.6C6.6,6.7,6.6,8.5,6.6,10.3z M10.3,10.3c0,0.5-0.6,0.5-0.9,0.5
	c-0.3,0-0.8,0.1-0.9-0.4c0-1.9,0-3.8,0-5.7c0.1-0.5,0.7-0.3,1.1-0.4c0.4-0.1,0.8,0.2,0.7,0.6C10.3,6.7,10.3,8.5,10.3,10.3z"/>
<g id="g4" transform="translate(-0.01903604,0.02221043)">
</g>
<g id="g6" transform="translate(-0.01903604,0.02221043)">
</g>
<g id="g8" transform="translate(-0.01903604,0.02221043)">
</g>
<g id="g10" transform="translate(-0.01903604,0.02221043)">
</g>
<g id="g12" transform="translate(-0.01903604,0.02221043)">
</g>
<g id="g14" transform="translate(-0.01903604,0.02221043)">
</g>
<g id="g16" transform="translate(-0.01903604,0.02221043)">
</g>
<g id="g18" transform="translate(-0.01903604,0.02221043)">
</g>
<g id="g20" transform="translate(-0.01903604,0.02221043)">
</g>
<g id="g22" transform="translate(-0.01903604,0.02221043)">
</g>
<g id="g24" transform="translate(-0.01903604,0.02221043)">
</g>
<g id="g26" transform="translate(-0.01903604,0.02221043)">
</g>
<g id="g28" transform="translate(-0.01903604,0.02221043)">
</g>
<g id="g30" transform="translate(-0.01903604,0.02221043)">
</g>
<g id="g32" transform="translate(-0.01903604,0.02221043)">
</g>
</svg>
