<?xml version="1.0" encoding="UTF-8" standalone="no"?>
<!-- Generator: Adobe Illustrator 19.0.0, SVG Export Plug-In . SVG Version: 6.00 Build 0)  -->

<svg
   version="1.1"
   id="Layer_1"
   x="0px"
   y="0px"
   viewBox="0 0 20.745352 20.745251"
   xml:space="preserve"
   width="20.745352"
   height="20.745251"
   sodipodi:docname="picture-frame.svg"
   inkscape:version="1.1.1 (1:1.1+202109281949+c3084ef5ed)"
   xmlns:inkscape="http://www.inkscape.org/namespaces/inkscape"
   xmlns:sodipodi="http://sodipodi.sourceforge.net/DTD/sodipodi-0.dtd"
   xmlns="http://www.w3.org/2000/svg"
   xmlns:svg="http://www.w3.org/2000/svg"><sodipodi:namedview
   id="namedview31"
   pagecolor="#ffffff"
   bordercolor="#666666"
   borderopacity="1.0"
   inkscape:pageshadow="2"
   inkscape:pageopacity="0.0"
   inkscape:pagecheckerboard="0"
   showgrid="false"
   fit-margin-top="0"
   fit-margin-left="0"
   fit-margin-right="0"
   fit-margin-bottom="0"
   inkscape:zoom="24.215073"
   inkscape:cx="11.810825"
   inkscape:cy="10.158962"
   inkscape:window-width="1920"
   inkscape:window-height="1056"
   inkscape:window-x="1920"
   inkscape:window-y="0"
   inkscape:window-maximized="1"
   inkscape:current-layer="g1325" /><defs
   id="defs57">
		
		
	</defs>
<g
   id="g22"
   transform="translate(-141.68664,-143.32441)">
	
	
	
	
	<g
   id="g986"
   transform="matrix(0.09174031,0,0,0.09174031,139.41786,139.41786)"><g
     id="g1313" /><g
     id="g18">
			
			
			<g
   id="g1325"
   transform="matrix(1.0989302,0,0,1.0989302,-30.889712,-13.037446)"><g
     id="g1413"><rect
       x="58.112999"
       y="58.112999"
       style="fill:#95e1d3"
       width="190.77765"
       height="190.77299"
       id="rect4"
       rx="0"
       ry="0" /><polygon
       style="fill:#eaffd0"
       points="117.389,248.887 183.138,135.007 248.887,248.887 "
       id="polygon6" /><polygon
       style="fill:#eaffd0"
       points="100.26,175.887 58.113,248.887 117.389,248.887 129.898,227.221 "
       id="polygon8" /><circle
       style="fill:#fce38a"
       cx="141.82001"
       cy="119.433"
       r="16.547001"
       id="circle10" /><path
       style="fill:#414042"
       d="M 248.887,50.613 H 58.113 c -4.142,0 -7.5,3.357 -7.5,7.5 v 190.773 c 0,4.118 3.362,7.5 7.5,7.5 h 59.276 131.498 c 4.06,0 7.5,-3.304 7.5,-7.5 V 58.113 c 0,-4.142 -3.358,-7.5 -7.5,-7.5 z m -7.5,15 v 155.283 l -51.754,-89.64 c -2.886,-4.998 -10.11,-4.988 -12.99,0 l -46.745,80.965 -23.143,-40.085 c -2.886,-4.998 -10.11,-4.988 -12.99,0 l -28.151,48.76 V 65.613 Z m -141.127,125.274 20.978,36.335 -7.823,13.549 -0.356,0.616 H 71.103 Z m 30.12,50.5 6.013,-10.415 c 0.001,-0.002 0.002,-0.004 0.003,-0.006 l 46.742,-80.959 52.759,91.38 z"
       id="path14" /><path
       style="fill:#414042"
       d="m 141.82,143.48 c 13.259,0 24.046,-10.787 24.046,-24.047 0,-13.26 -10.787,-24.047 -24.046,-24.047 -13.259,0 -24.046,10.787 -24.046,24.047 0,13.26 10.786,24.047 24.046,24.047 z m 0,-33.093 c 4.988,0 9.046,4.059 9.046,9.047 0,4.988 -4.058,9.047 -9.046,9.047 -4.988,0 -9.046,-4.059 -9.046,-9.047 -0.001,-4.989 4.057,-9.047 9.046,-9.047 z"
       id="path16" /></g></g>
		</g></g>
</g>
<g
   id="g24"
   transform="translate(-141.68664,-143.32441)">
</g>
<g
   id="g26"
   transform="translate(-141.68664,-143.32441)">
</g>
<g
   id="g28"
   transform="translate(-141.68664,-143.32441)">
</g>
<g
   id="g30"
   transform="translate(-141.68664,-143.32441)">
</g>
<g
   id="g32"
   transform="translate(-141.68664,-143.32441)">
</g>
<g
   id="g34"
   transform="translate(-141.68664,-143.32441)">
</g>
<g
   id="g36"
   transform="translate(-141.68664,-143.32441)">
</g>
<g
   id="g38"
   transform="translate(-141.68664,-143.32441)">
</g>
<g
   id="g40"
   transform="translate(-141.68664,-143.32441)">
</g>
<g
   id="g42"
   transform="translate(-141.68664,-143.32441)">
</g>
<g
   id="g44"
   transform="translate(-141.68664,-143.32441)">
</g>
<g
   id="g46"
   transform="translate(-141.68664,-143.32441)">
</g>
<g
   id="g48"
   transform="translate(-141.68664,-143.32441)">
</g>
<g
   id="g50"
   transform="translate(-141.68664,-143.32441)">
</g>
<g
   id="g52"
   transform="translate(-141.68664,-143.32441)">
</g>
</svg>
