<?xml version="1.0" encoding="UTF-8" standalone="no"?>
<svg
   version="1.1"
   id="Capa_1"
   x="0px"
   y="0px"
   viewBox="0 0 15 14.998326"
   xml:space="preserve"
   width="15"
   height="14.998326"
   xmlns="http://www.w3.org/2000/svg"
   xmlns:svg="http://www.w3.org/2000/svg"
   xmlns:rdf="http://www.w3.org/1999/02/22-rdf-syntax-ns#"
   xmlns:cc="http://creativecommons.org/ns#"
   xmlns:dc="http://purl.org/dc/elements/1.1/"><metadata
   id="metadata39"><rdf:RDF><cc:Work
       rdf:about=""><dc:format>image/svg+xml</dc:format><dc:type
         rdf:resource="http://purl.org/dc/dcmitype/StillImage" /></cc:Work></rdf:RDF></metadata><defs
   id="defs37" />
<path
   id="path2"
   style="fill:#1b98f8;fill-opacity:1;stroke-width:0.0292893"
   d="M 7.4980469 0 C 4.5496028 -0.040937549 1.7047721 1.8547661 0.58789062 4.5800781 C -0.57819305 7.2574082 0.02636631 10.583252 2.0703125 12.671875 C 4.0368718 14.788335 7.2754393 15.560096 9.9882812 14.572266 C 12.800219 13.617028 14.874915 10.855516 14.986328 7.8847656 C 15.172991 4.9968456 13.497714 2.109448 10.910156 0.8203125 C 9.858961 0.28011352 8.6796569 -0.0017990787 7.4980469 0 z M 3.8964844 2.9121094 L 7.8691406 5.2050781 L 11.841797 7.5 L 7.8691406 9.7929688 L 3.8964844 12.085938 L 3.8964844 7.5 L 3.8964844 2.9121094 z " />
<g
   id="g4"
   transform="translate(-0.01903604,0.02221043)">
</g>
<g
   id="g6"
   transform="translate(-0.01903604,0.02221043)">
</g>
<g
   id="g8"
   transform="translate(-0.01903604,0.02221043)">
</g>
<g
   id="g10"
   transform="translate(-0.01903604,0.02221043)">
</g>
<g
   id="g12"
   transform="translate(-0.01903604,0.02221043)">
</g>
<g
   id="g14"
   transform="translate(-0.01903604,0.02221043)">
</g>
<g
   id="g16"
   transform="translate(-0.01903604,0.02221043)">
</g>
<g
   id="g18"
   transform="translate(-0.01903604,0.02221043)">
</g>
<g
   id="g20"
   transform="translate(-0.01903604,0.02221043)">
</g>
<g
   id="g22"
   transform="translate(-0.01903604,0.02221043)">
</g>
<g
   id="g24"
   transform="translate(-0.01903604,0.02221043)">
</g>
<g
   id="g26"
   transform="translate(-0.01903604,0.02221043)">
</g>
<g
   id="g28"
   transform="translate(-0.01903604,0.02221043)">
</g>
<g
   id="g30"
   transform="translate(-0.01903604,0.02221043)">
</g>
<g
   id="g32"
   transform="translate(-0.01903604,0.02221043)">
</g>
</svg>
