<?xml version="1.0" encoding="UTF-8"?>
<svg width="83.39" height="89.648" enable-background="new 0 0 122.406 122.881" version="1.1" viewBox="0 0 83.39 89.648" xml:space="preserve" xmlns="http://www.w3.org/2000/svg"><g transform="translate(5e-4 -33.234)"><path d="m44.239 42.946-39.111 39.896 34.908 34.91 39.09-39.876-1.149-34.931zm-0.91791 42.273c0.979-0.979 1.507-1.99 1.577-3.027 0.077-1.043-0.248-2.424-0.967-4.135-0.725-1.717-1.348-3.346-1.87-4.885s-0.814-3.014-0.897-4.432c-0.07-1.42 0.134-2.768 0.624-4.045 0.477-1.279 1.348-2.545 2.607-3.804 2.099-2.099 4.535-3.123 7.314-3.065 2.773 0.063 5.457 1.158 8.04 3.294l2.881 3.034c1.946 2.607 2.799 5.33 2.557 8.166-0.235 2.83-1.532 5.426-3.893 7.785l-6.296-6.297c1.291-1.291 2.035-2.531 2.238-3.727 0.191-1.197-0.165-2.252-1.081-3.168-0.821-0.82-1.717-1.195-2.69-1.139-0.967 0.064-1.908 0.547-2.817 1.457-0.922 0.922-1.393 1.914-1.412 2.977s0.306 2.416 0.973 4.064c0.661 1.652 1.24 3.25 1.736 4.801 0.496 1.553 0.782 3.035 0.858 4.445 0.076 1.426-0.127 2.787-0.591 4.104-0.477 1.316-1.336 2.596-2.588 3.848-2.125 2.125-4.522 3.186-7.212 3.18s-5.311-1.063-7.855-3.16l-3.747 3.746-2.964-2.965 3.766-3.764c-2.423-2.996-3.568-5.998-3.447-9.02 0.127-3.014 1.476-5.813 4.045-8.383l6.278 6.277c-1.412 1.412-2.175 2.799-2.277 4.16-0.108 1.367 0.414 2.627 1.571 3.783 0.839 0.84 1.755 1.26 2.741 1.242 0.985-0.017 1.92-0.47 2.798-1.347zm21.127-46.435h17.457c-0.0269 2.2368 0.69936 16.025 0.69936 16.025l0.785 23.858c0.019 0.609-0.221 1.164-0.619 1.564l5e-3 4e-3 -41.236 42.022c-0.82213 0.8378-2.175 0.83-3.004 0l-37.913-37.91c-0.83-0.83-0.83-2.176 0-3.006l41.236-42.021c0.39287-0.42671 1.502-0.53568 1.502-0.53568zm18.011 11.59c-59.392-29.687-29.696-14.843 0 0z"/></g></svg>
