<?xml version="1.0" encoding="UTF-8" standalone="no"?>
<svg
   version="1.1"
   id="Layer_1"
   x="0px"
   y="0px"
   viewBox="0 0 661.20001 665.40002"
   xml:space="preserve"
   width="661.20001"
   height="665.40002"
   inkscape:version="1.1.2 (0a00cf5339, 2022-02-04)"
   sodipodi:docname="schedule.svg"
   xmlns:inkscape="http://www.inkscape.org/namespaces/inkscape"
   xmlns:sodipodi="http://sodipodi.sourceforge.net/DTD/sodipodi-0.dtd"
   xmlns="http://www.w3.org/2000/svg"
   xmlns:svg="http://www.w3.org/2000/svg"><defs
   id="defs77" /><sodipodi:namedview
   id="namedview75"
   pagecolor="#ffffff"
   bordercolor="#666666"
   borderopacity="1.0"
   inkscape:pageshadow="2"
   inkscape:pageopacity="0.0"
   inkscape:pagecheckerboard="0"
   showgrid="false"
   fit-margin-top="0"
   fit-margin-left="0"
   fit-margin-right="0"
   fit-margin-bottom="0"
   inkscape:zoom="1.2458671"
   inkscape:cx="300.59386"
   inkscape:cy="332.29869"
   inkscape:window-width="1920"
   inkscape:window-height="1051"
   inkscape:window-x="1920"
   inkscape:window-y="0"
   inkscape:window-maximized="1"
   inkscape:current-layer="g72" /> <style
   type="text/css"
   id="style2"> .st0{fill:#FFFFFF;} .st1{fill:#C1272D;} .st2{fill:#991D26;} .st3{fill:#CCCCCC;} .st4{fill:#E6E6E6;} .st5{fill:#F7931E;} .st6{fill:#F2F2F2;} .st7{fill:none;stroke:#999999;stroke-width:17.9763;stroke-linecap:round;stroke-miterlimit:10;} .st8{fill:none;stroke:#333333;stroke-width:8.9882;stroke-linecap:round;stroke-miterlimit:10;} .st9{fill:none;stroke:#C1272D;stroke-width:5.9921;stroke-linecap:round;stroke-miterlimit:10;} .st10{fill:#245F7F;} </style> <g
   id="g72"
   transform="translate(-149.4,-147.3)"> <path
   class="st0"
   d="M 601.2,699.8 H 205 c -30.7,0 -55.6,-24.9 -55.6,-55.6 V 248 c 0,-30.7 24.9,-55.6 55.6,-55.6 h 396.2 c 30.7,0 55.6,24.9 55.6,55.6 v 396.2 c 0,30.7 -24.9,55.6 -55.6,55.6 z"
   id="path4"
   style="fill:#dfdfdf;fill-opacity:1" /> <path
   class="st1"
   d="M 601.2,192.4 H 205 c -30.7,0 -55.6,24.9 -55.6,55.6 v 88.5 H 656.8 V 248 c 0,-30.7 -24.9,-55.6 -55.6,-55.6 z"
   id="path6"
   style="fill:#d62128;fill-opacity:1" /> <circle
   class="st2"
   cx="253.3"
   cy="264.5"
   r="36.700001"
   id="circle8" /> <circle
   class="st2"
   cx="551.59998"
   cy="264.5"
   r="36.700001"
   id="circle10" /> <path
   class="st3"
   d="m 253.3,275.7 v 0 c -11.8,0 -21.3,-9.6 -21.3,-21.3 v -85.8 c 0,-11.8 9.6,-21.3 21.3,-21.3 v 0 c 11.8,0 21.3,9.6 21.3,21.3 v 85.8 c 0,11.8 -9.5,21.3 -21.3,21.3 z"
   id="path12" /> <path
   class="st3"
   d="m 551.6,275.7 v 0 c -11.8,0 -21.3,-9.6 -21.3,-21.3 v -85.8 c 0,-11.8 9.6,-21.3 21.3,-21.3 v 0 c 11.8,0 21.3,9.6 21.3,21.3 v 85.8 c 0.1,11.8 -9.5,21.3 -21.3,21.3 z"
   id="path14" /> <rect
   x="215.7"
   y="370.89999"
   class="st4"
   width="75.199997"
   height="75.199997"
   id="rect16"
   style="fill:#ffffff;fill-opacity:1" /> <rect
   x="313"
   y="370.89999"
   class="st4"
   width="75.199997"
   height="75.199997"
   id="rect18"
   style="fill:#ffffff;fill-opacity:1" /> <rect
   x="410.20001"
   y="370.89999"
   class="st4"
   width="75.199997"
   height="75.199997"
   id="rect20"
   style="fill:#ffffff;fill-opacity:1" /> <rect
   x="507.5"
   y="370.89999"
   class="st4"
   width="75.199997"
   height="75.199997"
   id="rect22"
   style="fill:#ffffff;fill-opacity:1" /> <rect
   x="215.7"
   y="465"
   class="st4"
   width="75.199997"
   height="75.199997"
   id="rect24"
   style="fill:#ffffff;fill-opacity:1" /> <rect
   x="313"
   y="465"
   class="st1"
   width="75.199997"
   height="75.199997"
   id="rect26"
   style="fill:#27c12b;fill-opacity:1" /> <rect
   x="410.20001"
   y="465"
   class="st4"
   width="75.199997"
   height="75.199997"
   id="rect28"
   style="fill:#ffffff;fill-opacity:1" /> <rect
   x="507.5"
   y="465"
   class="st4"
   width="75.199997"
   height="75.199997"
   id="rect30" /> <rect
   x="215.7"
   y="559.09998"
   class="st4"
   width="75.199997"
   height="75.199997"
   id="rect32"
   style="fill:#ffffff;fill-opacity:1" /> <rect
   x="313"
   y="559.09998"
   class="st4"
   width="75.199997"
   height="75.199997"
   id="rect34"
   style="fill:#ffffff;fill-opacity:1" /> <rect
   x="410.20001"
   y="559.09998"
   class="st4"
   width="75.199997"
   height="75.199997"
   id="rect36"
   style="fill:#ffffff;fill-opacity:1" /> <rect
   x="507.5"
   y="559.09998"
   class="st4"
   width="75.199997"
   height="75.199997"
   id="rect38" /> <g
   id="g70"> <circle
   class="st5"
   cx="621.90002"
   cy="624"
   r="188.7"
   id="circle40" /> <circle
   class="st0"
   cx="621.90002"
   cy="624"
   r="148"
   id="circle42" /> <path
   class="st6"
   d="m 486.6,636.8 c 0,-81.7 66.3,-148 148,-148 37.6,0 72,14.1 98.1,37.2 -27.1,-30.6 -66.7,-49.9 -110.8,-49.9 -81.7,0 -148,66.3 -148,148 0,44.1 19.3,83.7 49.9,110.8 -23.1,-26.2 -37.2,-60.5 -37.2,-98.1 z"
   id="path44" /> <polyline
   class="st7"
   points="621.9,530.4 621.9,624 559,624  "
   id="polyline46" /> <g
   id="g64"> <line
   class="st8"
   x1="621.90002"
   y1="508.29999"
   x2="621.90002"
   y2="497.10001"
   id="line48" /> <line
   class="st8"
   x1="621.90002"
   y1="756.29999"
   x2="621.90002"
   y2="745.09998"
   id="line50" /> <line
   class="st8"
   x1="740.29999"
   y1="626.70001"
   x2="751.5"
   y2="626.70001"
   id="line52" /> <line
   class="st8"
   x1="492.29999"
   y1="626.70001"
   x2="503.5"
   y2="626.70001"
   id="line54" /> <line
   class="st8"
   x1="705.59998"
   y1="710.40002"
   x2="713.5"
   y2="718.29999"
   id="line56" /> <line
   class="st8"
   x1="530.29999"
   y1="535.09998"
   x2="538.20001"
   y2="543"
   id="line58" /> <line
   class="st8"
   x1="538.20001"
   y1="710.40002"
   x2="530.29999"
   y2="718.29999"
   id="line60" /> <line
   class="st8"
   x1="713.5"
   y1="535.09998"
   x2="705.59998"
   y2="543"
   id="line62" /> </g> <line
   class="st9"
   x1="604.40002"
   y1="606.29999"
   x2="684.5"
   y2="687.40002"
   id="line66" /> <circle
   class="st10"
   cx="621.90002"
   cy="624"
   r="16.1"
   id="circle68" /> </g> </g> </svg>
