<?xml version="1.0" encoding="utf-8"?>
<!-- Generator: Adobe Illustrator 25.4.1, SVG Export Plug-In . SVG Version: 6.00 Build 0)  -->
<svg version="1.1"
	 id="Layer_1" xmlns:cc="http://creativecommons.org/ns#" xmlns:dc="http://purl.org/dc/elements/1.1/" xmlns:inkscape="http://www.inkscape.org/namespaces/inkscape" xmlns:ns1="http://sozi.baierouge.fr" xmlns:rdf="http://www.w3.org/1999/02/22-rdf-syntax-ns#" xmlns:sodipodi="http://sodipodi.sourceforge.net/DTD/sodipodi-0.dtd"
	 xmlns="http://www.w3.org/2000/svg" xmlns:xlink="http://www.w3.org/1999/xlink" x="0px" y="0px" width="32px" height="32px"
	 viewBox="0 0 32 32" style="enable-background:new 0 0 32 32;" xml:space="preserve">
<style type="text/css">
	.st0{fill:#0078E7;}
	.st1{fill:#FFFFFF;}
</style>
<circle class="st0" cx="16" cy="16" r="16"/>
<g transform="translate(-29.461,-26.738)">
	<path class="st1" d="M51.7,51.2l-4-4c-1.1,0.7-2.4,1.1-3.8,1.1c-3.8,0-7-3.1-7-7c0-3.9,3.1-7,7-7c3.8,0,7,3.1,7,7
		c0,1.4-0.4,2.6-1,3.7l4,4.1c0.2,0.2,0,0.7-0.4,1.2l-0.6,0.6C52.5,51.2,51.9,51.4,51.7,51.2z M48.6,41.3c0-2.6-2.1-4.7-4.6-4.7
		c-2.6,0-4.7,2.1-4.7,4.7c0,2.6,2.1,4.7,4.7,4.7C46.5,45.9,48.6,43.8,48.6,41.3z"/>
</g>
</svg>
