<?xml version="1.0" encoding="UTF-8" standalone="no"?>
<svg
   width="18"
   height="19.92"
   viewBox="0 0 18 19.92"
   version="1.1"
   id="svg6"
   sodipodi:docname="spread.svg"
   inkscape:version="1.1.1 (1:1.1+202109281949+c3084ef5ed)"
   xmlns:inkscape="http://www.inkscape.org/namespaces/inkscape"
   xmlns:sodipodi="http://sodipodi.sourceforge.net/DTD/sodipodi-0.dtd"
   xmlns="http://www.w3.org/2000/svg"
   xmlns:svg="http://www.w3.org/2000/svg">
  <defs
     id="defs10" />
  <sodipodi:namedview
     id="namedview8"
     pagecolor="#ffffff"
     bordercolor="#666666"
     borderopacity="1.0"
     inkscape:pageshadow="2"
     inkscape:pageopacity="0.0"
     inkscape:pagecheckerboard="0"
     showgrid="false"
     fit-margin-top="0"
     fit-margin-left="0"
     fit-margin-right="0"
     fit-margin-bottom="0"
     inkscape:zoom="28.416667"
     inkscape:cx="9.0087975"
     inkscape:cy="9.9941348"
     inkscape:window-width="1920"
     inkscape:window-height="1056"
     inkscape:window-x="1920"
     inkscape:window-y="0"
     inkscape:window-maximized="1"
     inkscape:current-layer="svg6" />
  <path
     d="M -3,-2 H 21 V 22 H -3 Z"
     fill="none"
     id="path2" />
  <path
     d="m 15,14.08 c -0.76,0 -1.44,0.3 -1.96,0.77 L 5.91,10.7 C 5.96,10.47 6,10.24 6,10 6,9.76 5.96,9.53 5.91,9.3 L 12.96,5.19 C 13.5,5.69 14.21,6 15,6 16.66,6 18,4.66 18,3 18,1.34 16.66,0 15,0 c -1.66,0 -3,1.34 -3,3 0,0.24 0.04,0.47 0.09,0.7 L 5.04,7.81 C 4.5,7.31 3.79,7 3,7 1.34,7 0,8.34 0,10 c 0,1.66 1.34,3 3,3 0.79,0 1.5,-0.31 2.04,-0.81 l 7.12,4.16 c -0.05,0.21 -0.08,0.43 -0.08,0.65 0,1.61 1.31,2.92 2.92,2.92 1.61,0 2.92,-1.31 2.92,-2.92 0,-1.61 -1.31,-2.92 -2.92,-2.92 z"
     id="path4"
     style="fill:#0078e7;fill-opacity:1" />
</svg>
