<?xml version="1.0" encoding="UTF-8" standalone="no"?>
<svg
   aria-hidden="true"
   viewBox="0 0 19.966091 17.999964"
   class="css-1oqmxjn"
   version="1.1"
   id="svg4"
   sodipodi:docname="steps.svg"
   width="19.966091"
   height="17.999964"
   inkscape:version="1.1.2 (0a00cf5339, 2022-02-04)"
   xmlns:inkscape="http://www.inkscape.org/namespaces/inkscape"
   xmlns:sodipodi="http://sodipodi.sourceforge.net/DTD/sodipodi-0.dtd"
   xmlns="http://www.w3.org/2000/svg"
   xmlns:svg="http://www.w3.org/2000/svg">
  <defs
     id="defs8" />
  <sodipodi:namedview
     id="namedview6"
     pagecolor="#ffffff"
     bordercolor="#666666"
     borderopacity="1.0"
     inkscape:pageshadow="2"
     inkscape:pageopacity="0.0"
     inkscape:pagecheckerboard="0"
     showgrid="false"
     fit-margin-top="0"
     fit-margin-left="0"
     fit-margin-right="0"
     fit-margin-bottom="0"
     inkscape:zoom="8.6354167"
     inkscape:cx="-1.3896261"
     inkscape:cy="6.1375151"
     inkscape:window-width="1280"
     inkscape:window-height="667"
     inkscape:window-x="2419"
     inkscape:window-y="250"
     inkscape:window-maximized="0"
     inkscape:current-layer="svg4" />
  <path
     d="m 16.95807,12.000003 c -0.7076,0.0019 -1.3917,0.2538 -1.9316,0.7113 -0.5398,0.4575 -0.9005,1.091 -1.0184,1.7887 H 5.60804 c -0.80847,0.0297 -1.60693,-0.1865 -2.29,-0.62 -0.26632,-0.1847 -0.48375,-0.4315 -0.63356,-0.7189 -0.14982,-0.2874 -0.22753,-0.607 -0.22644,-0.9311 -0.02843,-0.3931 0.03646,-0.7873 0.1894,-1.1505 0.15293,-0.3632 0.38957,-0.6851 0.6906,-0.9395 0.66628,-0.4559004 1.4637,-0.6807004 2.27,-0.6400004 h 8.35003 c 0.8515,-0.0223 1.6727,-0.3206 2.34,-0.85 0.3971,-0.3622 0.7076,-0.8091 0.9084,-1.3077 0.2008,-0.49857 0.2868,-1.03596 0.2516,-1.57229 0.0113,-0.47161 -0.0887,-0.93924 -0.292,-1.36493 -0.2033,-0.4257 -0.5041,-0.79745 -0.878,-1.08507 -0.7801,-0.55815 -1.7212,-0.84609 -2.68,-0.82 H 5.95804 c -0.12537,-0.7417 -0.5248,-1.40924 -1.11913,-1.87032996 -0.59434,-0.46108 -1.3402,-0.68207 -2.08979,-0.61917 -0.74958,0.06291 -1.44818,0.40512 -1.95736,0.95881 C 0.28259,1.5230126 0,2.2477926 0,3.0000126 c 0,0.75222 0.28259,1.47699 0.79176,2.03068 0.50918,0.55369 1.20778,0.8959 1.95736,0.95881 0.74959,0.0629 1.49545,-0.15808 2.08979,-0.61917 0.59433,-0.46109 0.99376,-1.12863 1.11913,-1.87032 h 7.70003 c 0.7353,-0.03061 1.4599,0.18397 2.06,0.61 0.2548,0.19335 0.4595,0.445 0.597,0.73385 0.1375,0.28884 0.2036,0.60644 0.193,0.92615 0.0316,0.38842 -0.0247,0.77898 -0.165,1.14258 -0.1402,0.36361 -0.3607,0.69091 -0.645,0.95741 -0.5713,0.4398 -1.2799,0.663 -2,0.63 H 5.69804 c -1.03259,-0.0462 -2.05065,0.2568 -2.89,0.86 -0.43755,0.3361 -0.78838,0.7720004 -1.02322,1.2712004 -0.23484,0.4993 -0.34688,1.0474 -0.32678,1.5988 -0.00726,0.484 0.10591,0.9622 0.32934,1.3916 0.22344,0.4295 0.55012,0.7966 0.95066,1.0684 0.85039,0.5592 1.85274,0.8421 2.87,0.81 h 8.40003 c 0.0954,0.5643 0.3502,1.0896 0.7343,1.5138 0.3842,0.4242 0.8817,0.7297 1.4338,0.8803 0.5521,0.1507 1.1358,0.1403 1.6822,-0.0299 0.5464,-0.1702 1.0328,-0.4932 1.4016,-0.9308 0.3688,-0.4376 0.6048,-0.9716 0.6801,-1.5389 0.0752,-0.5673 -0.0134,-1.1444 -0.2554,-1.663 -0.242,-0.5186 -0.6273,-0.9572 -1.1104,-1.264 -0.4831,-0.3068 -1.0439,-0.469 -1.6162,-0.4675 z m 0,5 c -0.3956,0 -0.7823,-0.1173 -1.1112,-0.3371 -0.3289,-0.2197 -0.5852,-0.5321 -0.7366,-0.8975 -0.1514,-0.3655 -0.191,-0.7676 -0.1138,-1.1556 0.0772,-0.3879 0.2677,-0.7443 0.5474,-1.024 0.2797,-0.2797 0.636,-0.4702 1.024,-0.5474 0.388,-0.0771 0.7901,-0.0375 1.1555,0.1138 0.3655,0.1514 0.6778,0.4078 0.8976,0.7367 0.2198,0.3289 0.3371,0.7155 0.3371,1.1111 0,0.5304 -0.2107,1.0391 -0.5858,1.4142 -0.3751,0.3751 -0.8838,0.5858 -1.4142,0.5858 z"
     id="path2"
     style="fill:#777777;fill-opacity:1" />
</svg>
