<?xml version="1.0" encoding="UTF-8" standalone="no"?>
<!-- Created with Inkscape (http://www.inkscape.org/) -->

<svg
   version="1.1"
   id="svg2"
   width="511.98416"
   height="480.01831"
   viewBox="0 0 511.98416 480.01831"
   xmlns="http://www.w3.org/2000/svg"
   fill="#555"
   xmlns:svg="http://www.w3.org/2000/svg">
  <defs
     id="defs6" />
  <g
     id="g8"
     transform="translate(-3.7204361,-9.7778173)"
     fill="var(--color-text)"
  >
    <path
       d="m 259.73417,457.78724 v -32.009 l -106.25,-0.015 c -115.532286,-0.016 -112.704816,0.1118 -123.991026,-5.6074 -11.62917,-5.8929 -22.2571304,-20.1857 -24.7382704,-33.2687 -1.37925,-7.2727 -1.37925,-138.94556 0,-146.21833 2.48114,-13.08296 13.1091004,-27.37574 24.7382704,-33.26868 10.32893,-5.23407 14.15108,-5.59132 59.99103,-5.60736 l 42.249996,-0.0148 v 15.96914 15.96914 l -42.927816,0.28086 c -41.56936,0.27197 -43.01517,0.34611 -45.68821,2.34265 -1.51822,1.13398 -3.6882,3.30448 -4.82218,4.82333 -2.03635,2.72747 -2.06179,3.62334 -2.06179,72.61488 0,68.99157 0.0254,69.88737 2.06179,72.61487 1.13398,1.5189 3.30437,3.6894 4.82309,4.8233 2.74333,2.0484 3.45768,2.0635 109.688216,2.3252 l 106.9269,0.2633 v -32.0224 -32.0224 l 47.5,39.5967 c 26.125,21.7782 47.5,39.9678 47.5,40.4214 0,0.4536 -21.375,18.6433 -47.5,40.4215 l -47.5,39.5967 z"
       id="path845" />
    <path

       d="m 12.913804,104.09643 c -1.82621,-0.89991 -4.5262104,-3.21714 -6.0000004,-5.149385 l -2.67963,-3.51318 v -37.65568 -37.65568 l 2.69355,-3.53143 C 12.254014,9.6079453 10.734574,9.7781853 67.734174,9.7781853 c 56.999586,0 55.480156,-0.17024 60.806446,6.8128897 l 2.69355,3.53143 v 37.65568 37.65568 l -2.69355,3.53144 c -5.32975,6.987665 -3.78389,6.815465 -60.957576,6.790115 -45.49388,-0.0202 -51.72747,-0.20934 -54.66924,-1.65899 z"
       id="path1227" />
    <path
       d="m 180.9138,264.09643 c -1.82621,-0.89991 -4.52621,-3.21714 -6,-5.14938 l -2.67963,-3.51318 v -37.65568 -37.65568 l 2.69355,-3.53144 c 5.32629,-6.98312 3.80686,-6.81288 60.80645,-6.81288 56.99959,0 55.48016,-0.17024 60.80645,6.81288 l 2.69355,3.53144 v 37.65568 37.65568 l -2.69355,3.53144 c -5.32975,6.98766 -3.78389,6.81546 -60.95758,6.79011 -45.49388,-0.0202 -51.72747,-0.20934 -54.66924,-1.65899 z"
       id="path1225" />
    <path
       d="m 372.28893,258.24484 c -25.81989,-21.52596 -47.10145,-39.60671 -47.29235,-40.17943 -0.19091,-0.57272 21.04695,-18.87572 47.19524,-40.67333 l 47.54235,-39.63202 v 32.05498 32.05497 l 26.92894,-0.29591 c 25.38874,-0.27899 27.08675,-0.41383 29.68821,-2.3577 1.5176,-1.13398 3.68708,-3.30448 4.82106,-4.82333 2.02268,-2.70915 2.06179,-3.78317 2.06179,-56.61488 0,-52.831715 -0.0391,-53.905735 -2.06179,-56.614885 -1.13398,-1.51885 -3.30443,-3.68935 -4.82321,-4.82333 -2.75765,-2.05897 -2.97346,-2.06214 -157.68821,-2.32113 l -154.92679,-0.25935 v -15.99065 -15.99066 h 153.86351 c 98.18938,0 155.81256,0.3614 159.25,0.99879 8.96999,1.66326 18.94431,7.21624 25.30774,14.0895 3.09757,3.34574 6.74818,8.28596 8.11248,10.97828 5.2067,10.27492 5.43671,13.23357 5.43671,69.933435 0,56.69986 -0.23001,59.65851 -5.43671,69.93343 -1.3643,2.69232 -5.01491,7.63254 -8.11248,10.97828 -6.36343,6.87327 -16.33775,12.42624 -25.30774,14.0895 -2.96257,0.54933 -17.01884,0.99879 -31.23615,0.99879 h -25.84965 l -0.26386,31.80238 -0.26385,31.80238 z"
       id="path1223" />
    <path
       d="m 396.9138,456.09644 c -1.82621,-0.8999 -4.52621,-3.2171 -6,-5.1494 l -2.67963,-3.5132 v -37.6556 -37.6557 l 2.69355,-3.5315 c 5.32629,-6.9831 3.80686,-6.8128 60.80645,-6.8128 56.99959,0 55.48016,-0.1703 60.80645,6.8128 l 2.69355,3.5315 v 37.6557 37.6556 l -2.69355,3.5315 c -5.32975,6.9876 -3.78389,6.8154 -60.95758,6.7901 -45.49388,-0.02 -51.72747,-0.2094 -54.66924,-1.659 z"
       id="path1221" />
  </g>
</svg>
