<?xml version="1.0" encoding="utf-8"?>
<!-- Generator: Adobe Illustrator 25.4.1, SVG Export Plug-In . SVG Version: 6.00 Build 0)  -->
<svg version="1.1" id="Layer_1" xmlns="http://www.w3.org/2000/svg" xmlns:xlink="http://www.w3.org/1999/xlink" x="0px" y="0px"
	 width="15px" height="16.3px" viewBox="0 0 15 16.3" style="enable-background:new 0 0 15 16.3;" xml:space="preserve">
<style type="text/css">
	.st0{fill:#1B98F8;stroke:#1B98F8;stroke-width:0.5;stroke-miterlimit:10;}
</style>
<g>
	<path class="st0" d="M13.8,3.1H1.2c-0.6,0-1,0.5-1,1l0,0v8.1c0,0.5,0.5,1,1,1h12.6c0.5,0,1-0.5,1-1V4.1C14.8,3.5,14.2,3.1,13.8,3.1
		z M7.4,9.2L1.3,3.7h12.3L7.4,9.2z M5.3,8.1l-4.4,4V4.2L5.3,8.1z M5.8,8.5l1.5,1.4c0.1,0.1,0.3,0.1,0.5,0l1.5-1.4l4.4,4H1.3L5.8,8.5
		z M9.8,8.1l4.4-4V12L9.8,8.1z"/>
</g>
</svg>
