<svg id="svg2" xmlns="http://www.w3.org/2000/svg" width="16.33" height="11.64" viewBox="0 0 16.33 11.64"><path id="path2416" d="M14.2,6.5l1.4,3.1-6.2.8s0,.2-.4.1a.65.65,0,0,1-.6-.6L1.8,11.1.6,4.2H.9v.1H.8L2,10.9,8.4,9.8V10h.4s0,.4.5.4l.1-.1,6-.8-1.2-3Z" transform="translate(-0.01 -0.04)" style="fill:#0078e7;stroke:#007ec0;fill-rule:evenodd"/><path id="path2400" d="M1,4.3H.9L2,10.9,8.4,9.8s-1.7-.9-6.1,1L1,4.3Z" transform="translate(-0.01 -0.04)" style="fill:#1187c3;fill-rule:evenodd"/><path id="path2402" d="M1,4.1V3.6h.1V3.2l.2-.3h.1V2.5L2.8,8.9l-.1.3v.2l-.1.1-.2.1-.1,1.1L1,4.1Z" transform="translate(-0.01 -0.04)" style="fill:#fff;stroke:#0078e7;stroke-width:0.5px;fill-rule:evenodd"/><path id="path2388" d="M2.3,10.8l.1-1.2.3-.3V9.2l.2-.3s5.5-.2,5.9.8l-.4.1s-1.7-.9-6.1,1Z" transform="translate(-0.01 -0.04)" style="fill:#fff;stroke:#0078e7;stroke-width:0.5px;fill-rule:evenodd"/><path id="path2394" d="M2.2,2.5H1.5L2.9,8.9s5.3-.2,5.9.8c0,0-.1-1.1-5.4-1.6L2.2,2.5Z" transform="translate(-0.01 -0.04)" style="fill:#fff;stroke:#0078e7;stroke-width:0.5px;fill-rule:evenodd"/><path id="path2398" d="M2,1.3,3.4,8s5,.5,5.4,1.7l-2-6.3c0-.1,0-1.1-4.8-2.1Z" transform="translate(-0.01 -0.04)" style="fill:#fff;stroke:#0078e7;stroke-width:0.5px;fill-rule:evenodd"/><path id="path2403" d="M6.9,3.3l5-2.9,2.5,5.9L8.8,9.7,6.9,3.3Z" transform="translate(-0.01 -0.04)" style="fill:#fff;stroke:#0078e7;stroke-width:0.5px;fill-rule:evenodd"/><path id="path2411" d="M8.5,10V9.8l.3-.1s.2.6.6.6v.1a.49.49,0,0,1-.5-.5l-.4.1Z" transform="translate(-0.01 -0.04)" style="fill:#1187c3;stroke:#007ec0;stroke-width:0.5px;fill-rule:evenodd"/><path id="path2415" d="M8.8,9.7s.2.6.6.5l6-.8-.3-.6h-.3c.1,0-5,.2-6,.9Z" transform="translate(-0.01 -0.04)" style="fill:#fff;stroke:#0078e7;stroke-width:0.5px;fill-rule:evenodd"/><path id="path2404" d="M15.1,8.9l-1-2.3L8.8,9.7v.1s.5-.6,6-.9V9Z" transform="translate(-0.01 -0.04)" style="fill:#fff;stroke:#0078e7;stroke-width:0.5px;fill-rule:evenodd"/></svg>