<?xml version="1.0" encoding="utf-8"?>
<!-- Generator: Adobe Illustrator 25.4.1, SVG Export Plug-In . SVG Version: 6.00 Build 0)  -->
<svg version="1.1"
	 id="svg2" inkscape:export-filename="/home/piotr/priv/zm_szablon/book.png" inkscape:export-xdpi="90" inkscape:export-ydpi="90" inkscape:output_extension="org.inkscape.output.svg.inkscape" inkscape:version="0.46" sodipodi:docname="book.svg" sodipodi:version="0.32" xmlns:cc="http://creativecommons.org/ns#" xmlns:dc="http://purl.org/dc/elements/1.1/" xmlns:inkscape="http://www.inkscape.org/namespaces/inkscape" xmlns:ns1="http://sozi.baierouge.fr" xmlns:rdf="http://www.w3.org/1999/02/22-rdf-syntax-ns#" xmlns:sodipodi="http://sodipodi.sourceforge.net/DTD/sodipodi-0.dtd" xmlns:svg="http://www.w3.org/2000/svg"
	 xmlns="http://www.w3.org/2000/svg" xmlns:xlink="http://www.w3.org/1999/xlink" x="0px" y="0px" width="16.3px" height="11.6px"
	 viewBox="0 0 16.3 11.6" style="enable-background:new 0 0 16.3 11.6;" xml:space="preserve">
<style type="text/css">
	.st0{fill-rule:evenodd;clip-rule:evenodd;fill:#0078E7;stroke:#007EC0;}
	.st1{fill-rule:evenodd;clip-rule:evenodd;fill:#1187C3;}
	.st2{fill-rule:evenodd;clip-rule:evenodd;fill:#FFFFFF;stroke:#0078E7;stroke-width:0.5;}
	.st3{fill-rule:evenodd;clip-rule:evenodd;fill:#1187C3;stroke:#007EC0;stroke-width:0.5;}
</style>
<sodipodi:namedview  bordercolor="#666666" borderopacity="1.0" gridtolerance="10000" guidetolerance="10" id="base" inkscape:current-layer="layer1" inkscape:cx="394.36154" inkscape:cy="818.28215" inkscape:document-units="px" inkscape:pageopacity="0.0" inkscape:pageshadow="2" inkscape:window-height="725" inkscape:window-width="1279" inkscape:window-x="1" inkscape:window-y="49" inkscape:zoom="0.98994949" objecttolerance="10" pagecolor="#ffffff" showgrid="false">
	</sodipodi:namedview>
<path id="path2416" sodipodi:nodetypes="cccsccccccccccccccc" class="st0" d="M14.2,6.5l1.4,3.1l-6.2,0.8c0,0,0,0.2-0.4,0.1
	c-0.3,0-0.6-0.3-0.6-0.6l-6.6,1.2L0.6,4.2h0.3v0.1H0.8L2,10.9l6.4-1.1V10h0.4c0,0,0,0.4,0.5,0.4l0.1-0.1l6-0.8L14.2,6.5L14.2,6.5z"
	/>
<path id="path2400" sodipodi:nodetypes="cccccc" class="st1" d="M1,4.3H0.9L2,10.9l6.4-1.1c0,0-1.7-0.9-6.1,1L1,4.3L1,4.3z"/>
<path id="path2402" sodipodi:nodetypes="ccccccccccccccc" class="st2" d="M1,4.1V3.6h0.1V3.2l0.2-0.3h0.1V2.6V2.5l1.4,6.4L2.7,9.2
	v0.2L2.6,9.5L2.4,9.6l-0.1,1.1L1,4.1L1,4.1z"/>
<path id="path2388" sodipodi:nodetypes="cccccccc" class="st2" d="M2.3,10.8l0.1-1.2l0.3-0.3V9.2l0.2-0.3c0,0,5.5-0.2,5.9,0.8
	L8.4,9.8C8.4,9.8,6.7,8.9,2.3,10.8L2.3,10.8z"/>
<path id="path2394" class="st2" d="M2.2,2.5H1.5l1.4,6.4c0,0,5.3-0.2,5.9,0.8c0,0-0.1-1.1-5.4-1.6L2.2,2.5L2.2,2.5z"/>
<path id="path2398" class="st2" d="M2,1.3L3.4,8c0,0,5,0.5,5.4,1.7l-2-6.3C6.8,3.3,6.8,2.3,2,1.3L2,1.3z"/>
<path id="path2403" sodipodi:nodetypes="ccccc" class="st2" d="M6.9,3.3l5-2.9l2.5,5.9L8.8,9.7L6.9,3.3L6.9,3.3z"/>
<path id="path2411" sodipodi:nodetypes="ccccccc" class="st3" d="M8.5,10V9.8l0.3-0.1c0,0,0.2,0.6,0.6,0.6v0.1c0,0-0.5,0-0.5-0.5
	L8.5,10L8.5,10z"/>
<path id="path2415" class="st2" d="M8.8,9.7c0,0,0.2,0.6,0.6,0.5l6-0.8l-0.3-0.6h-0.3v0C14.9,8.8,9.8,9,8.8,9.7L8.8,9.7z"/>
<path id="path2404" sodipodi:nodetypes="ccccc" class="st2" d="M15.1,8.9l-1-2.3L8.8,9.7v0.1c0,0,0.5-0.6,6-0.9V9L15.1,8.9z"/>
</svg>
