<?xml version="1.0" standalone="no"?>
<!DOCTYPE svg PUBLIC "-//W3C//DTD SVG 20010904//EN"
 "http://www.w3.org/TR/2001/REC-SVG-20010904/DTD/svg10.dtd">
<svg version="1.0" xmlns="http://www.w3.org/2000/svg"
 width="256.000000pt" height="256.000000pt" viewBox="0 0 256.000000 256.000000"
 preserveAspectRatio="xMidYMid meet">
<metadata>
Created by potrace 1.14, written by Peter Selinger 2001-2017
</metadata>
<g transform="translate(0.000000,256.000000) scale(0.100000,-0.100000)"
fill="#000000" stroke="none">
<path d="M0 1280 l0 -1280 1280 0 1280 0 0 1280 0 1280 -1280 0 -1280 0 0
-1280z m1555 936 c387 -112 675 -426 741 -810 24 -138 15 -352 -20 -470 -106
-353 -360 -606 -713 -712 -75 -22 -113 -27 -253 -31 -144 -5 -176 -2 -252 16
-316 75 -564 271 -707 557 -67 136 -92 237 -98 401 -7 164 5 253 47 378 106
315 349 556 665 659 114 37 180 45 350 41 125 -2 165 -7 240 -29z"/>
<path d="M1091 2165 c-364 -82 -629 -328 -738 -682 -24 -80 -27 -103 -27 -258
-1 -146 2 -182 21 -251 74 -271 259 -497 508 -621 477 -238 1061 -35 1294 450
61 126 83 220 88 379 7 194 -15 307 -93 461 -126 251 -340 428 -614 507 -99
29 -343 37 -439 15z m829 -473 c55 -54 100 -106 100 -116 0 -21 -184 -213
-212 -222 -24 -7 -48 12 -48 38 0 11 26 47 58 80 l57 60 -151 -3 c-145 -4
-152 -5 -190 -31 -22 -15 -78 -73 -124 -128 l-85 -99 -32 31 -32 31 30 38 c17
22 70 79 117 128 66 67 97 92 127 100 22 6 106 11 188 11 81 0 147 3 147 8 0
4 -25 31 -55 61 -55 55 -65 77 -43 99 25 25 50 10 148 -86z m-1002 -101 c46
-24 141 -121 312 -321 203 -236 290 -330 322 -346 22 -11 60 -14 169 -12 l141
3 -51 58 c-28 32 -51 64 -51 71 0 18 21 36 43 36 24 0 217 -193 217 -217 0
-19 -185 -210 -212 -219 -24 -7 -48 12 -48 38 0 10 23 43 50 72 l50 53 -52 7
c-29 3 -93 6 -142 6 -104 0 -152 12 -200 52 -19 15 -135 144 -258 286 -274
316 -305 347 -354 361 -22 6 -94 11 -161 11 -67 0 -128 3 -137 6 -22 9 -21 61
2 67 9 3 86 5 170 6 133 1 158 -2 190 -18z m227 -468 c23 -34 17 -43 -103
-172 -119 -128 -131 -133 -343 -129 l-154 3 0 35 c0 34 1 35 50 42 28 3 96 7
153 7 64 1 115 6 136 15 20 8 71 56 127 120 52 58 99 106 105 106 7 0 20 -12
29 -27z"/>
</g>
</svg>
