<svg xmlns="http://www.w3.org/2000/svg" shape-rendering="geometricPrecision" text-rendering="geometricPrecision" image-rendering="optimizeQuality" fill-rule="evenodd" clip-rule="evenodd" viewBox="0 0 512 262.86"><path fill-rule="nonzero" d="M316.78 16.55h-205.9c-30.5 0-58.22 12.48-78.31 32.57C12.47 69.21 0 96.93 0 127.44c0 30.5 12.47 58.22 32.57 78.31 20.09 20.1 47.81 32.57 78.31 32.57h193.25c21.54 15.43 47.9 24.54 76.26 24.54h.18c36.14 0 69.02-14.79 92.83-38.6 23.8-23.81 38.6-56.67 38.6-92.83 0-36.15-14.78-69.03-38.63-92.8C449.53 14.8 416.67 0 380.57 0h-.18c-23.02 0-44.72 6.02-63.61 16.55zm70.62 97.17.43.09c.82-3.45 2.83-6.19 6.04-8.16 3.2-1.98 6.53-2.57 10.01-1.75l.1-.43c-3.47-.82-6.2-2.83-8.17-6.03-1.98-3.22-2.57-6.55-1.75-10.01l-.43-.1c-.82 3.47-2.83 6.2-6.03 8.18-3.21 1.98-6.55 2.56-10.02 1.74l-.1.43c3.47.82 6.2 2.84 8.18 6.04 1.99 3.19 2.56 6.52 1.74 10zm36.87 16.77.53.12c1.02-4.35 3.55-7.78 7.58-10.26 4.02-2.49 8.2-3.22 12.56-2.19l.13-.53c-4.35-1.03-7.78-3.55-10.26-7.59-2.49-4.03-3.22-8.22-2.2-12.56l-.53-.12c-1.02 4.35-3.55 7.77-7.58 10.26-4.02 2.49-8.21 3.22-12.56 2.19l-.13.53c4.36 1.03 7.78 3.55 10.26 7.58 2.49 4.02 3.22 8.22 2.2 12.57zm-38.79-61.01c-15.69 7.67-26.98 23.26-28.29 41.93-1.96 27.88 19.05 52.06 46.92 54.02 13.23.93 25.64-3.32 35.22-11.02 4.75-3.82 9.66-.45 7.59 4.36-11.33 26.42-38.45 44.04-68.74 41.91-38.29-2.69-67.14-35.91-64.45-74.19C316.3 89.8 347.05 61.67 383.44 62c6.71.06 8.13 4.5 2.04 7.48zm-5.09-53.95h.18c63.75 0 115.91 52.15 115.91 115.9 0 63.75-52.23 115.91-115.91 115.91h-.18c-63.68 0-115.91-52.16-115.91-115.91s52.16-115.9 115.91-115.9z"/></svg>